G04 EAGLE Gerber RS-274X export*
G75*
%MOMM*%
%FSLAX34Y34*%
%LPD*%
%INTop Copper*%
%IPPOS*%
%AMOC8*
5,1,8,0,0,1.08239X$1,22.5*%
G01*
%ADD10C,0.152400*%
%ADD11C,1.320800*%
%ADD12P,1.924489X8X202.500000*%
%ADD13C,1.524000*%
%ADD14C,1.981200*%
%ADD15P,1.814519X8X112.500000*%
%ADD16C,0.304800*%
%ADD17P,1.814519X8X292.500000*%
%ADD18R,1.400000X1.200000*%
%ADD19C,1.790700*%
%ADD20C,1.016000*%
%ADD21C,0.609600*%
%ADD22C,0.756400*%


D10*
X764907Y864362D02*
X764907Y869781D01*
X764909Y869899D01*
X764915Y870017D01*
X764924Y870135D01*
X764938Y870252D01*
X764955Y870369D01*
X764976Y870486D01*
X765001Y870601D01*
X765030Y870716D01*
X765063Y870830D01*
X765099Y870942D01*
X765139Y871053D01*
X765182Y871163D01*
X765229Y871272D01*
X765279Y871379D01*
X765334Y871484D01*
X765391Y871587D01*
X765452Y871688D01*
X765516Y871788D01*
X765583Y871885D01*
X765653Y871980D01*
X765727Y872072D01*
X765803Y872163D01*
X765883Y872250D01*
X765965Y872335D01*
X766050Y872417D01*
X766137Y872497D01*
X766228Y872573D01*
X766320Y872647D01*
X766415Y872717D01*
X766512Y872784D01*
X766612Y872848D01*
X766713Y872909D01*
X766816Y872966D01*
X766921Y873021D01*
X767028Y873071D01*
X767137Y873118D01*
X767247Y873161D01*
X767358Y873201D01*
X767470Y873237D01*
X767584Y873270D01*
X767699Y873299D01*
X767814Y873324D01*
X767931Y873345D01*
X768048Y873362D01*
X768165Y873376D01*
X768283Y873385D01*
X768401Y873391D01*
X768519Y873393D01*
X769422Y873393D01*
X769422Y873394D02*
X769555Y873392D01*
X769687Y873386D01*
X769819Y873376D01*
X769951Y873363D01*
X770083Y873345D01*
X770213Y873324D01*
X770344Y873299D01*
X770473Y873270D01*
X770601Y873237D01*
X770729Y873201D01*
X770855Y873161D01*
X770980Y873117D01*
X771104Y873069D01*
X771226Y873018D01*
X771347Y872963D01*
X771466Y872905D01*
X771584Y872843D01*
X771699Y872778D01*
X771813Y872709D01*
X771924Y872638D01*
X772033Y872562D01*
X772140Y872484D01*
X772245Y872403D01*
X772347Y872318D01*
X772447Y872231D01*
X772544Y872141D01*
X772639Y872048D01*
X772730Y871952D01*
X772819Y871854D01*
X772905Y871753D01*
X772988Y871649D01*
X773068Y871543D01*
X773144Y871435D01*
X773218Y871325D01*
X773288Y871212D01*
X773355Y871098D01*
X773418Y870981D01*
X773478Y870863D01*
X773535Y870743D01*
X773588Y870621D01*
X773637Y870498D01*
X773683Y870374D01*
X773725Y870248D01*
X773763Y870121D01*
X773798Y869993D01*
X773829Y869864D01*
X773856Y869735D01*
X773879Y869604D01*
X773899Y869473D01*
X773914Y869341D01*
X773926Y869209D01*
X773934Y869077D01*
X773938Y868944D01*
X773938Y868812D01*
X773934Y868679D01*
X773926Y868547D01*
X773914Y868415D01*
X773899Y868283D01*
X773879Y868152D01*
X773856Y868021D01*
X773829Y867892D01*
X773798Y867763D01*
X773763Y867635D01*
X773725Y867508D01*
X773683Y867382D01*
X773637Y867258D01*
X773588Y867135D01*
X773535Y867013D01*
X773478Y866893D01*
X773418Y866775D01*
X773355Y866658D01*
X773288Y866544D01*
X773218Y866431D01*
X773144Y866321D01*
X773068Y866213D01*
X772988Y866107D01*
X772905Y866003D01*
X772819Y865902D01*
X772730Y865804D01*
X772639Y865708D01*
X772544Y865615D01*
X772447Y865525D01*
X772347Y865438D01*
X772245Y865353D01*
X772140Y865272D01*
X772033Y865194D01*
X771924Y865118D01*
X771813Y865047D01*
X771699Y864978D01*
X771584Y864913D01*
X771466Y864851D01*
X771347Y864793D01*
X771226Y864738D01*
X771104Y864687D01*
X770980Y864639D01*
X770855Y864595D01*
X770729Y864555D01*
X770601Y864519D01*
X770473Y864486D01*
X770344Y864457D01*
X770213Y864432D01*
X770083Y864411D01*
X769951Y864393D01*
X769819Y864380D01*
X769687Y864370D01*
X769555Y864364D01*
X769422Y864362D01*
X764907Y864362D01*
X764730Y864364D01*
X764552Y864371D01*
X764375Y864382D01*
X764199Y864397D01*
X764023Y864416D01*
X763847Y864440D01*
X763672Y864468D01*
X763497Y864501D01*
X763324Y864538D01*
X763151Y864579D01*
X762980Y864624D01*
X762810Y864673D01*
X762641Y864727D01*
X762473Y864784D01*
X762307Y864846D01*
X762142Y864912D01*
X761979Y864982D01*
X761818Y865056D01*
X761659Y865133D01*
X761501Y865215D01*
X761346Y865301D01*
X761193Y865390D01*
X761042Y865483D01*
X760893Y865580D01*
X760747Y865680D01*
X760603Y865784D01*
X760462Y865891D01*
X760324Y866002D01*
X760188Y866116D01*
X760055Y866234D01*
X759925Y866354D01*
X759798Y866478D01*
X759674Y866605D01*
X759554Y866735D01*
X759436Y866868D01*
X759322Y867003D01*
X759211Y867142D01*
X759104Y867283D01*
X759000Y867427D01*
X758900Y867573D01*
X758803Y867722D01*
X758710Y867873D01*
X758621Y868026D01*
X758535Y868181D01*
X758453Y868339D01*
X758376Y868498D01*
X758302Y868659D01*
X758232Y868822D01*
X758166Y868987D01*
X758104Y869153D01*
X758047Y869321D01*
X757993Y869490D01*
X757944Y869660D01*
X757899Y869831D01*
X757858Y870004D01*
X757821Y870177D01*
X757788Y870352D01*
X757760Y870527D01*
X757736Y870703D01*
X757717Y870879D01*
X757702Y871055D01*
X757691Y871232D01*
X757684Y871410D01*
X757682Y871587D01*
X757682Y888942D02*
X773938Y888942D01*
X757682Y888942D02*
X757682Y893458D01*
X757684Y893591D01*
X757690Y893723D01*
X757700Y893855D01*
X757713Y893987D01*
X757731Y894119D01*
X757752Y894249D01*
X757777Y894380D01*
X757806Y894509D01*
X757839Y894637D01*
X757875Y894765D01*
X757915Y894891D01*
X757959Y895016D01*
X758007Y895140D01*
X758058Y895262D01*
X758113Y895383D01*
X758171Y895502D01*
X758233Y895620D01*
X758298Y895735D01*
X758367Y895849D01*
X758438Y895960D01*
X758514Y896069D01*
X758592Y896176D01*
X758673Y896281D01*
X758758Y896383D01*
X758845Y896483D01*
X758935Y896580D01*
X759028Y896675D01*
X759124Y896766D01*
X759222Y896855D01*
X759323Y896941D01*
X759427Y897024D01*
X759533Y897104D01*
X759641Y897180D01*
X759751Y897254D01*
X759864Y897324D01*
X759978Y897391D01*
X760095Y897454D01*
X760213Y897514D01*
X760333Y897571D01*
X760455Y897624D01*
X760578Y897673D01*
X760702Y897719D01*
X760828Y897761D01*
X760955Y897799D01*
X761083Y897834D01*
X761212Y897865D01*
X761341Y897892D01*
X761472Y897915D01*
X761603Y897935D01*
X761735Y897950D01*
X761867Y897962D01*
X761999Y897970D01*
X762132Y897974D01*
X762264Y897974D01*
X762397Y897970D01*
X762529Y897962D01*
X762661Y897950D01*
X762793Y897935D01*
X762924Y897915D01*
X763055Y897892D01*
X763184Y897865D01*
X763313Y897834D01*
X763441Y897799D01*
X763568Y897761D01*
X763694Y897719D01*
X763818Y897673D01*
X763941Y897624D01*
X764063Y897571D01*
X764183Y897514D01*
X764301Y897454D01*
X764418Y897391D01*
X764532Y897324D01*
X764645Y897254D01*
X764755Y897180D01*
X764863Y897104D01*
X764969Y897024D01*
X765073Y896941D01*
X765174Y896855D01*
X765272Y896766D01*
X765368Y896675D01*
X765461Y896580D01*
X765551Y896483D01*
X765638Y896383D01*
X765723Y896281D01*
X765804Y896176D01*
X765882Y896069D01*
X765958Y895960D01*
X766029Y895849D01*
X766098Y895735D01*
X766163Y895620D01*
X766225Y895502D01*
X766283Y895383D01*
X766338Y895262D01*
X766389Y895140D01*
X766437Y895016D01*
X766481Y894891D01*
X766521Y894765D01*
X766557Y894637D01*
X766590Y894509D01*
X766619Y894380D01*
X766644Y894249D01*
X766665Y894119D01*
X766683Y893987D01*
X766696Y893855D01*
X766706Y893723D01*
X766712Y893591D01*
X766714Y893458D01*
X766713Y893458D02*
X766713Y888942D01*
X766713Y894361D02*
X773938Y897974D01*
X773938Y907052D02*
X773938Y911568D01*
X773938Y907052D02*
X773936Y906951D01*
X773930Y906850D01*
X773921Y906749D01*
X773908Y906648D01*
X773891Y906548D01*
X773870Y906449D01*
X773846Y906351D01*
X773818Y906254D01*
X773786Y906157D01*
X773751Y906062D01*
X773712Y905969D01*
X773670Y905877D01*
X773624Y905786D01*
X773575Y905698D01*
X773523Y905611D01*
X773467Y905526D01*
X773409Y905443D01*
X773347Y905363D01*
X773282Y905285D01*
X773215Y905209D01*
X773145Y905136D01*
X773072Y905066D01*
X772996Y904999D01*
X772918Y904934D01*
X772838Y904872D01*
X772755Y904814D01*
X772670Y904758D01*
X772584Y904706D01*
X772495Y904657D01*
X772404Y904611D01*
X772312Y904569D01*
X772219Y904530D01*
X772124Y904495D01*
X772027Y904463D01*
X771930Y904435D01*
X771832Y904411D01*
X771733Y904390D01*
X771633Y904373D01*
X771532Y904360D01*
X771431Y904351D01*
X771330Y904345D01*
X771229Y904343D01*
X766713Y904343D01*
X766713Y904344D02*
X766594Y904346D01*
X766474Y904352D01*
X766355Y904362D01*
X766237Y904376D01*
X766118Y904393D01*
X766001Y904415D01*
X765884Y904440D01*
X765769Y904470D01*
X765654Y904503D01*
X765540Y904540D01*
X765428Y904580D01*
X765317Y904625D01*
X765208Y904673D01*
X765100Y904724D01*
X764994Y904779D01*
X764890Y904838D01*
X764788Y904900D01*
X764688Y904965D01*
X764590Y905034D01*
X764494Y905106D01*
X764401Y905181D01*
X764311Y905258D01*
X764223Y905339D01*
X764138Y905423D01*
X764056Y905510D01*
X763976Y905599D01*
X763900Y905691D01*
X763826Y905785D01*
X763756Y905882D01*
X763689Y905980D01*
X763625Y906081D01*
X763565Y906185D01*
X763508Y906290D01*
X763455Y906397D01*
X763405Y906505D01*
X763359Y906615D01*
X763317Y906727D01*
X763278Y906840D01*
X763243Y906954D01*
X763212Y907069D01*
X763184Y907186D01*
X763161Y907303D01*
X763141Y907420D01*
X763125Y907539D01*
X763113Y907658D01*
X763105Y907777D01*
X763101Y907896D01*
X763101Y908016D01*
X763105Y908135D01*
X763113Y908254D01*
X763125Y908373D01*
X763141Y908492D01*
X763161Y908609D01*
X763184Y908726D01*
X763212Y908843D01*
X763243Y908958D01*
X763278Y909072D01*
X763317Y909185D01*
X763359Y909297D01*
X763405Y909407D01*
X763455Y909515D01*
X763508Y909622D01*
X763565Y909727D01*
X763625Y909831D01*
X763689Y909932D01*
X763756Y910030D01*
X763826Y910127D01*
X763900Y910221D01*
X763976Y910313D01*
X764056Y910402D01*
X764138Y910489D01*
X764223Y910573D01*
X764311Y910654D01*
X764401Y910731D01*
X764494Y910806D01*
X764590Y910878D01*
X764688Y910947D01*
X764788Y911012D01*
X764890Y911074D01*
X764994Y911133D01*
X765100Y911188D01*
X765208Y911239D01*
X765317Y911287D01*
X765428Y911332D01*
X765540Y911372D01*
X765654Y911409D01*
X765769Y911442D01*
X765884Y911472D01*
X766001Y911497D01*
X766118Y911519D01*
X766237Y911536D01*
X766355Y911550D01*
X766474Y911560D01*
X766594Y911566D01*
X766713Y911568D01*
X768519Y911568D01*
X768519Y904343D01*
X771229Y918127D02*
X757682Y918127D01*
X771229Y918127D02*
X771330Y918129D01*
X771431Y918135D01*
X771532Y918144D01*
X771633Y918157D01*
X771733Y918174D01*
X771832Y918195D01*
X771930Y918219D01*
X772027Y918247D01*
X772124Y918279D01*
X772219Y918314D01*
X772312Y918353D01*
X772404Y918395D01*
X772495Y918441D01*
X772584Y918490D01*
X772670Y918542D01*
X772755Y918598D01*
X772838Y918656D01*
X772918Y918718D01*
X772996Y918783D01*
X773072Y918850D01*
X773145Y918920D01*
X773215Y918993D01*
X773282Y919069D01*
X773347Y919147D01*
X773409Y919227D01*
X773467Y919310D01*
X773523Y919395D01*
X773575Y919482D01*
X773624Y919570D01*
X773670Y919661D01*
X773712Y919753D01*
X773751Y919846D01*
X773786Y919941D01*
X773818Y920038D01*
X773846Y920135D01*
X773870Y920233D01*
X773891Y920332D01*
X773908Y920432D01*
X773921Y920533D01*
X773930Y920634D01*
X773936Y920735D01*
X773938Y920836D01*
X767616Y929314D02*
X767616Y933378D01*
X767616Y929314D02*
X767618Y929202D01*
X767624Y929091D01*
X767634Y928980D01*
X767647Y928869D01*
X767665Y928759D01*
X767687Y928650D01*
X767712Y928541D01*
X767741Y928433D01*
X767774Y928327D01*
X767811Y928221D01*
X767851Y928117D01*
X767895Y928015D01*
X767943Y927914D01*
X767994Y927815D01*
X768049Y927717D01*
X768107Y927622D01*
X768168Y927529D01*
X768233Y927438D01*
X768301Y927349D01*
X768372Y927263D01*
X768445Y927180D01*
X768522Y927099D01*
X768602Y927020D01*
X768684Y926945D01*
X768769Y926873D01*
X768856Y926803D01*
X768946Y926737D01*
X769038Y926674D01*
X769133Y926614D01*
X769229Y926558D01*
X769327Y926505D01*
X769427Y926456D01*
X769529Y926410D01*
X769632Y926368D01*
X769737Y926329D01*
X769843Y926294D01*
X769950Y926263D01*
X770058Y926236D01*
X770167Y926212D01*
X770277Y926193D01*
X770387Y926177D01*
X770498Y926165D01*
X770610Y926157D01*
X770721Y926153D01*
X770833Y926153D01*
X770944Y926157D01*
X771056Y926165D01*
X771167Y926177D01*
X771277Y926193D01*
X771387Y926212D01*
X771496Y926236D01*
X771604Y926263D01*
X771711Y926294D01*
X771817Y926329D01*
X771922Y926368D01*
X772025Y926410D01*
X772127Y926456D01*
X772227Y926505D01*
X772325Y926558D01*
X772421Y926614D01*
X772516Y926674D01*
X772608Y926737D01*
X772698Y926803D01*
X772785Y926873D01*
X772870Y926945D01*
X772952Y927020D01*
X773032Y927099D01*
X773109Y927180D01*
X773182Y927263D01*
X773253Y927349D01*
X773321Y927438D01*
X773386Y927529D01*
X773447Y927622D01*
X773505Y927717D01*
X773560Y927815D01*
X773611Y927914D01*
X773659Y928015D01*
X773703Y928117D01*
X773743Y928221D01*
X773780Y928327D01*
X773813Y928433D01*
X773842Y928541D01*
X773867Y928650D01*
X773889Y928759D01*
X773907Y928869D01*
X773920Y928980D01*
X773930Y929091D01*
X773936Y929202D01*
X773938Y929314D01*
X773938Y933378D01*
X765810Y933378D01*
X765709Y933376D01*
X765608Y933370D01*
X765507Y933361D01*
X765406Y933348D01*
X765306Y933331D01*
X765207Y933310D01*
X765109Y933286D01*
X765012Y933258D01*
X764915Y933226D01*
X764820Y933191D01*
X764727Y933152D01*
X764635Y933110D01*
X764544Y933064D01*
X764456Y933015D01*
X764369Y932963D01*
X764284Y932907D01*
X764201Y932849D01*
X764121Y932787D01*
X764043Y932722D01*
X763967Y932655D01*
X763894Y932585D01*
X763824Y932512D01*
X763757Y932436D01*
X763692Y932358D01*
X763630Y932278D01*
X763572Y932195D01*
X763516Y932110D01*
X763464Y932024D01*
X763415Y931935D01*
X763369Y931844D01*
X763327Y931752D01*
X763288Y931659D01*
X763253Y931564D01*
X763221Y931467D01*
X763193Y931370D01*
X763169Y931272D01*
X763148Y931173D01*
X763131Y931073D01*
X763118Y930972D01*
X763109Y930871D01*
X763103Y930770D01*
X763101Y930669D01*
X763101Y927057D01*
X779357Y939774D02*
X779357Y941580D01*
X763101Y946999D01*
X763101Y939774D02*
X773938Y943386D01*
X773938Y966173D02*
X773936Y966291D01*
X773930Y966409D01*
X773921Y966527D01*
X773907Y966644D01*
X773890Y966761D01*
X773869Y966878D01*
X773844Y966993D01*
X773815Y967108D01*
X773782Y967222D01*
X773746Y967334D01*
X773706Y967445D01*
X773663Y967555D01*
X773616Y967664D01*
X773566Y967771D01*
X773511Y967876D01*
X773454Y967979D01*
X773393Y968080D01*
X773329Y968180D01*
X773262Y968277D01*
X773192Y968372D01*
X773118Y968464D01*
X773042Y968555D01*
X772962Y968642D01*
X772880Y968727D01*
X772795Y968809D01*
X772708Y968889D01*
X772617Y968965D01*
X772525Y969039D01*
X772430Y969109D01*
X772333Y969176D01*
X772233Y969240D01*
X772132Y969301D01*
X772029Y969358D01*
X771924Y969413D01*
X771817Y969463D01*
X771708Y969510D01*
X771598Y969553D01*
X771487Y969593D01*
X771375Y969629D01*
X771261Y969662D01*
X771146Y969691D01*
X771031Y969716D01*
X770914Y969737D01*
X770797Y969754D01*
X770680Y969768D01*
X770562Y969777D01*
X770444Y969783D01*
X770326Y969785D01*
X773938Y966173D02*
X773936Y965990D01*
X773929Y965808D01*
X773918Y965626D01*
X773903Y965444D01*
X773883Y965262D01*
X773860Y965081D01*
X773831Y964901D01*
X773799Y964721D01*
X773762Y964542D01*
X773721Y964365D01*
X773675Y964188D01*
X773626Y964012D01*
X773572Y963838D01*
X773514Y963664D01*
X773452Y963493D01*
X773386Y963323D01*
X773315Y963154D01*
X773241Y962987D01*
X773163Y962822D01*
X773081Y962659D01*
X772995Y962498D01*
X772905Y962339D01*
X772811Y962182D01*
X772714Y962028D01*
X772613Y961876D01*
X772508Y961726D01*
X772400Y961579D01*
X772289Y961435D01*
X772174Y961293D01*
X772055Y961154D01*
X771933Y961018D01*
X771808Y960885D01*
X771680Y960755D01*
X761294Y961206D02*
X761176Y961208D01*
X761058Y961214D01*
X760940Y961223D01*
X760823Y961237D01*
X760706Y961254D01*
X760589Y961275D01*
X760474Y961300D01*
X760359Y961329D01*
X760245Y961362D01*
X760133Y961398D01*
X760022Y961438D01*
X759912Y961481D01*
X759803Y961528D01*
X759696Y961578D01*
X759591Y961633D01*
X759488Y961690D01*
X759387Y961751D01*
X759287Y961815D01*
X759190Y961882D01*
X759095Y961952D01*
X759003Y962026D01*
X758912Y962102D01*
X758825Y962182D01*
X758740Y962264D01*
X758658Y962349D01*
X758578Y962436D01*
X758502Y962527D01*
X758428Y962619D01*
X758358Y962714D01*
X758291Y962811D01*
X758227Y962911D01*
X758166Y963012D01*
X758109Y963115D01*
X758054Y963220D01*
X758004Y963327D01*
X757957Y963436D01*
X757914Y963546D01*
X757874Y963657D01*
X757838Y963769D01*
X757805Y963883D01*
X757776Y963998D01*
X757751Y964113D01*
X757730Y964230D01*
X757713Y964347D01*
X757699Y964464D01*
X757690Y964582D01*
X757684Y964700D01*
X757682Y964818D01*
X757684Y964979D01*
X757690Y965141D01*
X757699Y965302D01*
X757713Y965463D01*
X757730Y965623D01*
X757751Y965783D01*
X757776Y965943D01*
X757805Y966102D01*
X757837Y966260D01*
X757873Y966417D01*
X757913Y966573D01*
X757957Y966729D01*
X758005Y966883D01*
X758056Y967036D01*
X758110Y967188D01*
X758169Y967339D01*
X758230Y967488D01*
X758296Y967635D01*
X758365Y967781D01*
X758437Y967926D01*
X758513Y968068D01*
X758592Y968209D01*
X758674Y968348D01*
X758760Y968484D01*
X758849Y968619D01*
X758941Y968752D01*
X759037Y968882D01*
X764455Y963012D02*
X764393Y962911D01*
X764328Y962811D01*
X764259Y962714D01*
X764187Y962619D01*
X764113Y962526D01*
X764035Y962436D01*
X763954Y962348D01*
X763871Y962263D01*
X763785Y962181D01*
X763696Y962102D01*
X763605Y962025D01*
X763511Y961952D01*
X763415Y961881D01*
X763317Y961814D01*
X763217Y961750D01*
X763114Y961689D01*
X763010Y961632D01*
X762904Y961578D01*
X762796Y961528D01*
X762687Y961481D01*
X762576Y961437D01*
X762464Y961397D01*
X762350Y961361D01*
X762236Y961329D01*
X762120Y961300D01*
X762004Y961275D01*
X761887Y961254D01*
X761769Y961237D01*
X761651Y961223D01*
X761532Y961214D01*
X761413Y961208D01*
X761294Y961206D01*
X767165Y967980D02*
X767227Y968081D01*
X767292Y968181D01*
X767361Y968278D01*
X767433Y968373D01*
X767507Y968466D01*
X767585Y968556D01*
X767666Y968644D01*
X767749Y968729D01*
X767835Y968811D01*
X767924Y968890D01*
X768015Y968967D01*
X768109Y969040D01*
X768205Y969111D01*
X768303Y969178D01*
X768403Y969242D01*
X768506Y969303D01*
X768610Y969360D01*
X768716Y969414D01*
X768824Y969464D01*
X768933Y969511D01*
X769044Y969555D01*
X769156Y969595D01*
X769270Y969631D01*
X769384Y969663D01*
X769500Y969692D01*
X769616Y969717D01*
X769733Y969738D01*
X769851Y969755D01*
X769969Y969769D01*
X770088Y969778D01*
X770207Y969784D01*
X770326Y969786D01*
X767165Y967979D02*
X764455Y963012D01*
X763101Y976320D02*
X779357Y976320D01*
X763101Y976320D02*
X763101Y980836D01*
X763103Y980940D01*
X763109Y981043D01*
X763119Y981147D01*
X763133Y981250D01*
X763151Y981352D01*
X763172Y981453D01*
X763198Y981554D01*
X763227Y981653D01*
X763260Y981752D01*
X763297Y981849D01*
X763338Y981944D01*
X763382Y982038D01*
X763430Y982130D01*
X763481Y982220D01*
X763536Y982309D01*
X763594Y982395D01*
X763656Y982478D01*
X763720Y982560D01*
X763788Y982638D01*
X763858Y982714D01*
X763931Y982788D01*
X764008Y982858D01*
X764086Y982926D01*
X764168Y982990D01*
X764251Y983052D01*
X764337Y983110D01*
X764426Y983165D01*
X764516Y983216D01*
X764608Y983264D01*
X764702Y983308D01*
X764797Y983349D01*
X764894Y983386D01*
X764993Y983419D01*
X765092Y983448D01*
X765193Y983474D01*
X765294Y983495D01*
X765396Y983513D01*
X765499Y983527D01*
X765603Y983537D01*
X765706Y983543D01*
X765810Y983545D01*
X771229Y983545D01*
X771330Y983543D01*
X771431Y983537D01*
X771532Y983528D01*
X771633Y983515D01*
X771733Y983498D01*
X771832Y983477D01*
X771930Y983453D01*
X772027Y983425D01*
X772124Y983393D01*
X772219Y983358D01*
X772312Y983319D01*
X772404Y983277D01*
X772495Y983231D01*
X772584Y983182D01*
X772670Y983130D01*
X772755Y983074D01*
X772838Y983016D01*
X772918Y982954D01*
X772996Y982889D01*
X773072Y982822D01*
X773145Y982752D01*
X773215Y982679D01*
X773282Y982603D01*
X773347Y982525D01*
X773409Y982445D01*
X773467Y982362D01*
X773523Y982277D01*
X773575Y982191D01*
X773624Y982102D01*
X773670Y982011D01*
X773712Y981919D01*
X773751Y981826D01*
X773786Y981731D01*
X773818Y981634D01*
X773846Y981537D01*
X773870Y981439D01*
X773891Y981340D01*
X773908Y981240D01*
X773921Y981139D01*
X773930Y981038D01*
X773936Y980937D01*
X773938Y980836D01*
X773938Y976320D01*
X773938Y990400D02*
X763101Y990400D01*
X763101Y995818D01*
X764907Y995818D01*
X763101Y1000701D02*
X773938Y1000701D01*
X758585Y1000249D02*
X757682Y1000249D01*
X757682Y1001152D01*
X758585Y1001152D01*
X758585Y1000249D01*
X763101Y1007509D02*
X773938Y1007509D01*
X763101Y1007509D02*
X763101Y1012025D01*
X763103Y1012129D01*
X763109Y1012232D01*
X763119Y1012336D01*
X763133Y1012439D01*
X763151Y1012541D01*
X763172Y1012642D01*
X763198Y1012743D01*
X763227Y1012842D01*
X763260Y1012941D01*
X763297Y1013038D01*
X763338Y1013133D01*
X763382Y1013227D01*
X763430Y1013319D01*
X763481Y1013409D01*
X763536Y1013498D01*
X763594Y1013584D01*
X763656Y1013667D01*
X763720Y1013749D01*
X763788Y1013827D01*
X763858Y1013903D01*
X763931Y1013977D01*
X764008Y1014047D01*
X764086Y1014115D01*
X764168Y1014179D01*
X764251Y1014241D01*
X764337Y1014299D01*
X764426Y1014354D01*
X764516Y1014405D01*
X764608Y1014453D01*
X764702Y1014497D01*
X764797Y1014538D01*
X764894Y1014575D01*
X764993Y1014608D01*
X765092Y1014637D01*
X765193Y1014663D01*
X765294Y1014684D01*
X765396Y1014702D01*
X765499Y1014716D01*
X765603Y1014726D01*
X765706Y1014732D01*
X765810Y1014734D01*
X773938Y1014734D01*
X773938Y1022267D02*
X757682Y1022267D01*
X763101Y1029492D02*
X768519Y1022267D01*
X766262Y1025428D02*
X773938Y1029492D01*
X771229Y1035361D02*
X757682Y1035361D01*
X771229Y1035362D02*
X771330Y1035364D01*
X771431Y1035370D01*
X771532Y1035379D01*
X771633Y1035392D01*
X771733Y1035409D01*
X771832Y1035430D01*
X771930Y1035454D01*
X772027Y1035482D01*
X772124Y1035514D01*
X772219Y1035549D01*
X772312Y1035588D01*
X772404Y1035630D01*
X772495Y1035676D01*
X772584Y1035725D01*
X772670Y1035777D01*
X772755Y1035833D01*
X772838Y1035891D01*
X772918Y1035953D01*
X772996Y1036018D01*
X773072Y1036085D01*
X773145Y1036155D01*
X773215Y1036228D01*
X773282Y1036304D01*
X773347Y1036382D01*
X773409Y1036462D01*
X773467Y1036545D01*
X773523Y1036630D01*
X773575Y1036717D01*
X773624Y1036805D01*
X773670Y1036896D01*
X773712Y1036988D01*
X773751Y1037081D01*
X773786Y1037176D01*
X773818Y1037273D01*
X773846Y1037370D01*
X773870Y1037468D01*
X773891Y1037567D01*
X773908Y1037667D01*
X773921Y1037768D01*
X773930Y1037869D01*
X773936Y1037970D01*
X773938Y1038071D01*
X773938Y1046170D02*
X773938Y1050686D01*
X773938Y1046170D02*
X773936Y1046069D01*
X773930Y1045968D01*
X773921Y1045867D01*
X773908Y1045766D01*
X773891Y1045666D01*
X773870Y1045567D01*
X773846Y1045469D01*
X773818Y1045372D01*
X773786Y1045275D01*
X773751Y1045180D01*
X773712Y1045087D01*
X773670Y1044995D01*
X773624Y1044904D01*
X773575Y1044816D01*
X773523Y1044729D01*
X773467Y1044644D01*
X773409Y1044561D01*
X773347Y1044481D01*
X773282Y1044403D01*
X773215Y1044327D01*
X773145Y1044254D01*
X773072Y1044184D01*
X772996Y1044117D01*
X772918Y1044052D01*
X772838Y1043990D01*
X772755Y1043932D01*
X772670Y1043876D01*
X772584Y1043824D01*
X772495Y1043775D01*
X772404Y1043729D01*
X772312Y1043687D01*
X772219Y1043648D01*
X772124Y1043613D01*
X772027Y1043581D01*
X771930Y1043553D01*
X771832Y1043529D01*
X771733Y1043508D01*
X771633Y1043491D01*
X771532Y1043478D01*
X771431Y1043469D01*
X771330Y1043463D01*
X771229Y1043461D01*
X766713Y1043461D01*
X766594Y1043463D01*
X766474Y1043469D01*
X766355Y1043479D01*
X766237Y1043493D01*
X766118Y1043510D01*
X766001Y1043532D01*
X765884Y1043557D01*
X765769Y1043587D01*
X765654Y1043620D01*
X765540Y1043657D01*
X765428Y1043697D01*
X765317Y1043742D01*
X765208Y1043790D01*
X765100Y1043841D01*
X764994Y1043896D01*
X764890Y1043955D01*
X764788Y1044017D01*
X764688Y1044082D01*
X764590Y1044151D01*
X764494Y1044223D01*
X764401Y1044298D01*
X764311Y1044375D01*
X764223Y1044456D01*
X764138Y1044540D01*
X764056Y1044627D01*
X763976Y1044716D01*
X763900Y1044808D01*
X763826Y1044902D01*
X763756Y1044999D01*
X763689Y1045097D01*
X763625Y1045198D01*
X763565Y1045302D01*
X763508Y1045407D01*
X763455Y1045514D01*
X763405Y1045622D01*
X763359Y1045732D01*
X763317Y1045844D01*
X763278Y1045957D01*
X763243Y1046071D01*
X763212Y1046186D01*
X763184Y1046303D01*
X763161Y1046420D01*
X763141Y1046537D01*
X763125Y1046656D01*
X763113Y1046775D01*
X763105Y1046894D01*
X763101Y1047013D01*
X763101Y1047133D01*
X763105Y1047252D01*
X763113Y1047371D01*
X763125Y1047490D01*
X763141Y1047609D01*
X763161Y1047726D01*
X763184Y1047843D01*
X763212Y1047960D01*
X763243Y1048075D01*
X763278Y1048189D01*
X763317Y1048302D01*
X763359Y1048414D01*
X763405Y1048524D01*
X763455Y1048632D01*
X763508Y1048739D01*
X763565Y1048844D01*
X763625Y1048948D01*
X763689Y1049049D01*
X763756Y1049147D01*
X763826Y1049244D01*
X763900Y1049338D01*
X763976Y1049430D01*
X764056Y1049519D01*
X764138Y1049606D01*
X764223Y1049690D01*
X764311Y1049771D01*
X764401Y1049848D01*
X764494Y1049923D01*
X764590Y1049995D01*
X764688Y1050064D01*
X764788Y1050129D01*
X764890Y1050191D01*
X764994Y1050250D01*
X765100Y1050305D01*
X765208Y1050356D01*
X765317Y1050404D01*
X765428Y1050449D01*
X765540Y1050489D01*
X765654Y1050526D01*
X765769Y1050559D01*
X765884Y1050589D01*
X766001Y1050614D01*
X766118Y1050636D01*
X766237Y1050653D01*
X766355Y1050667D01*
X766474Y1050677D01*
X766594Y1050683D01*
X766713Y1050685D01*
X766713Y1050686D02*
X768519Y1050686D01*
X768519Y1043461D01*
X773938Y1057614D02*
X763101Y1057614D01*
X763101Y1063033D01*
X764907Y1063033D01*
X773938Y1079998D02*
X773938Y1083611D01*
X773938Y1079998D02*
X773936Y1079880D01*
X773930Y1079762D01*
X773921Y1079644D01*
X773907Y1079527D01*
X773890Y1079410D01*
X773869Y1079293D01*
X773844Y1079178D01*
X773815Y1079063D01*
X773782Y1078949D01*
X773746Y1078837D01*
X773706Y1078726D01*
X773663Y1078616D01*
X773616Y1078507D01*
X773566Y1078400D01*
X773511Y1078295D01*
X773454Y1078192D01*
X773393Y1078091D01*
X773329Y1077991D01*
X773262Y1077894D01*
X773192Y1077799D01*
X773118Y1077707D01*
X773042Y1077616D01*
X772962Y1077529D01*
X772880Y1077444D01*
X772795Y1077362D01*
X772708Y1077282D01*
X772617Y1077206D01*
X772525Y1077132D01*
X772430Y1077062D01*
X772333Y1076995D01*
X772233Y1076931D01*
X772132Y1076870D01*
X772029Y1076813D01*
X771924Y1076758D01*
X771817Y1076708D01*
X771708Y1076661D01*
X771598Y1076618D01*
X771487Y1076578D01*
X771375Y1076542D01*
X771261Y1076509D01*
X771146Y1076480D01*
X771031Y1076455D01*
X770914Y1076434D01*
X770797Y1076417D01*
X770680Y1076403D01*
X770562Y1076394D01*
X770444Y1076388D01*
X770326Y1076386D01*
X761294Y1076386D01*
X761294Y1076385D02*
X761176Y1076387D01*
X761058Y1076393D01*
X760940Y1076402D01*
X760822Y1076416D01*
X760705Y1076433D01*
X760589Y1076454D01*
X760474Y1076479D01*
X760359Y1076508D01*
X760245Y1076541D01*
X760133Y1076577D01*
X760021Y1076617D01*
X759911Y1076660D01*
X759803Y1076707D01*
X759696Y1076758D01*
X759591Y1076812D01*
X759488Y1076869D01*
X759386Y1076930D01*
X759287Y1076994D01*
X759190Y1077061D01*
X759095Y1077132D01*
X759002Y1077205D01*
X758912Y1077282D01*
X758824Y1077361D01*
X758739Y1077443D01*
X758657Y1077528D01*
X758578Y1077616D01*
X758501Y1077706D01*
X758428Y1077799D01*
X758357Y1077893D01*
X758290Y1077991D01*
X758226Y1078090D01*
X758165Y1078191D01*
X758108Y1078295D01*
X758054Y1078400D01*
X758003Y1078507D01*
X757956Y1078615D01*
X757913Y1078725D01*
X757873Y1078837D01*
X757837Y1078949D01*
X757804Y1079063D01*
X757775Y1079178D01*
X757750Y1079293D01*
X757729Y1079409D01*
X757712Y1079526D01*
X757698Y1079644D01*
X757689Y1079762D01*
X757683Y1079880D01*
X757681Y1079998D01*
X757682Y1079998D02*
X757682Y1083611D01*
X766713Y1089312D02*
X770326Y1089312D01*
X766713Y1089313D02*
X766594Y1089315D01*
X766474Y1089321D01*
X766355Y1089331D01*
X766237Y1089345D01*
X766118Y1089362D01*
X766001Y1089384D01*
X765884Y1089409D01*
X765769Y1089439D01*
X765654Y1089472D01*
X765540Y1089509D01*
X765428Y1089549D01*
X765317Y1089594D01*
X765208Y1089642D01*
X765100Y1089693D01*
X764994Y1089748D01*
X764890Y1089807D01*
X764788Y1089869D01*
X764688Y1089934D01*
X764590Y1090003D01*
X764494Y1090075D01*
X764401Y1090150D01*
X764311Y1090227D01*
X764223Y1090308D01*
X764138Y1090392D01*
X764056Y1090479D01*
X763976Y1090568D01*
X763900Y1090660D01*
X763826Y1090754D01*
X763756Y1090851D01*
X763689Y1090949D01*
X763625Y1091050D01*
X763565Y1091154D01*
X763508Y1091259D01*
X763455Y1091366D01*
X763405Y1091474D01*
X763359Y1091584D01*
X763317Y1091696D01*
X763278Y1091809D01*
X763243Y1091923D01*
X763212Y1092038D01*
X763184Y1092155D01*
X763161Y1092272D01*
X763141Y1092389D01*
X763125Y1092508D01*
X763113Y1092627D01*
X763105Y1092746D01*
X763101Y1092865D01*
X763101Y1092985D01*
X763105Y1093104D01*
X763113Y1093223D01*
X763125Y1093342D01*
X763141Y1093461D01*
X763161Y1093578D01*
X763184Y1093695D01*
X763212Y1093812D01*
X763243Y1093927D01*
X763278Y1094041D01*
X763317Y1094154D01*
X763359Y1094266D01*
X763405Y1094376D01*
X763455Y1094484D01*
X763508Y1094591D01*
X763565Y1094696D01*
X763625Y1094800D01*
X763689Y1094901D01*
X763756Y1094999D01*
X763826Y1095096D01*
X763900Y1095190D01*
X763976Y1095282D01*
X764056Y1095371D01*
X764138Y1095458D01*
X764223Y1095542D01*
X764311Y1095623D01*
X764401Y1095700D01*
X764494Y1095775D01*
X764590Y1095847D01*
X764688Y1095916D01*
X764788Y1095981D01*
X764890Y1096043D01*
X764994Y1096102D01*
X765100Y1096157D01*
X765208Y1096208D01*
X765317Y1096256D01*
X765428Y1096301D01*
X765540Y1096341D01*
X765654Y1096378D01*
X765769Y1096411D01*
X765884Y1096441D01*
X766001Y1096466D01*
X766118Y1096488D01*
X766237Y1096505D01*
X766355Y1096519D01*
X766474Y1096529D01*
X766594Y1096535D01*
X766713Y1096537D01*
X770326Y1096537D01*
X770445Y1096535D01*
X770565Y1096529D01*
X770684Y1096519D01*
X770802Y1096505D01*
X770921Y1096488D01*
X771038Y1096466D01*
X771155Y1096441D01*
X771270Y1096411D01*
X771385Y1096378D01*
X771499Y1096341D01*
X771611Y1096301D01*
X771722Y1096256D01*
X771831Y1096208D01*
X771939Y1096157D01*
X772045Y1096102D01*
X772149Y1096043D01*
X772251Y1095981D01*
X772351Y1095916D01*
X772449Y1095847D01*
X772545Y1095775D01*
X772638Y1095700D01*
X772728Y1095623D01*
X772816Y1095542D01*
X772901Y1095458D01*
X772983Y1095371D01*
X773063Y1095282D01*
X773139Y1095190D01*
X773213Y1095096D01*
X773283Y1094999D01*
X773350Y1094901D01*
X773414Y1094800D01*
X773474Y1094696D01*
X773531Y1094591D01*
X773584Y1094484D01*
X773634Y1094376D01*
X773680Y1094266D01*
X773722Y1094154D01*
X773761Y1094041D01*
X773796Y1093927D01*
X773827Y1093812D01*
X773855Y1093695D01*
X773878Y1093578D01*
X773898Y1093461D01*
X773914Y1093342D01*
X773926Y1093223D01*
X773934Y1093104D01*
X773938Y1092985D01*
X773938Y1092865D01*
X773934Y1092746D01*
X773926Y1092627D01*
X773914Y1092508D01*
X773898Y1092389D01*
X773878Y1092272D01*
X773855Y1092155D01*
X773827Y1092038D01*
X773796Y1091923D01*
X773761Y1091809D01*
X773722Y1091696D01*
X773680Y1091584D01*
X773634Y1091474D01*
X773584Y1091366D01*
X773531Y1091259D01*
X773474Y1091154D01*
X773414Y1091050D01*
X773350Y1090949D01*
X773283Y1090851D01*
X773213Y1090754D01*
X773139Y1090660D01*
X773063Y1090568D01*
X772983Y1090479D01*
X772901Y1090392D01*
X772816Y1090308D01*
X772728Y1090227D01*
X772638Y1090150D01*
X772545Y1090075D01*
X772449Y1090003D01*
X772351Y1089934D01*
X772251Y1089869D01*
X772149Y1089807D01*
X772045Y1089748D01*
X771939Y1089693D01*
X771831Y1089642D01*
X771722Y1089594D01*
X771611Y1089549D01*
X771499Y1089509D01*
X771385Y1089472D01*
X771270Y1089439D01*
X771155Y1089409D01*
X771038Y1089384D01*
X770921Y1089362D01*
X770802Y1089345D01*
X770684Y1089331D01*
X770565Y1089321D01*
X770445Y1089315D01*
X770326Y1089313D01*
X773938Y1103381D02*
X763101Y1103381D01*
X763101Y1107896D01*
X763103Y1108000D01*
X763109Y1108103D01*
X763119Y1108207D01*
X763133Y1108310D01*
X763151Y1108412D01*
X763172Y1108513D01*
X763198Y1108614D01*
X763227Y1108713D01*
X763260Y1108812D01*
X763297Y1108909D01*
X763338Y1109004D01*
X763382Y1109098D01*
X763430Y1109190D01*
X763481Y1109280D01*
X763536Y1109369D01*
X763594Y1109455D01*
X763656Y1109538D01*
X763720Y1109620D01*
X763788Y1109698D01*
X763858Y1109774D01*
X763931Y1109848D01*
X764008Y1109918D01*
X764086Y1109986D01*
X764168Y1110050D01*
X764251Y1110112D01*
X764337Y1110170D01*
X764426Y1110225D01*
X764516Y1110276D01*
X764608Y1110324D01*
X764702Y1110368D01*
X764797Y1110409D01*
X764894Y1110446D01*
X764993Y1110479D01*
X765092Y1110508D01*
X765193Y1110534D01*
X765294Y1110555D01*
X765396Y1110573D01*
X765499Y1110587D01*
X765603Y1110597D01*
X765706Y1110603D01*
X765810Y1110605D01*
X773938Y1110605D01*
X763101Y1116151D02*
X763101Y1121570D01*
X757682Y1117958D02*
X771229Y1117958D01*
X771330Y1117960D01*
X771431Y1117966D01*
X771532Y1117975D01*
X771633Y1117988D01*
X771733Y1118005D01*
X771832Y1118026D01*
X771930Y1118050D01*
X772027Y1118078D01*
X772124Y1118110D01*
X772219Y1118145D01*
X772312Y1118184D01*
X772404Y1118226D01*
X772495Y1118272D01*
X772584Y1118321D01*
X772670Y1118373D01*
X772755Y1118429D01*
X772838Y1118487D01*
X772918Y1118549D01*
X772996Y1118614D01*
X773072Y1118681D01*
X773145Y1118751D01*
X773215Y1118824D01*
X773282Y1118900D01*
X773347Y1118978D01*
X773409Y1119058D01*
X773467Y1119141D01*
X773523Y1119226D01*
X773575Y1119313D01*
X773624Y1119401D01*
X773670Y1119492D01*
X773712Y1119584D01*
X773751Y1119677D01*
X773786Y1119772D01*
X773818Y1119869D01*
X773846Y1119966D01*
X773870Y1120064D01*
X773891Y1120163D01*
X773908Y1120263D01*
X773921Y1120364D01*
X773930Y1120465D01*
X773936Y1120566D01*
X773938Y1120667D01*
X773938Y1121570D01*
X773938Y1127954D02*
X763101Y1127954D01*
X763101Y1133373D01*
X764907Y1133373D01*
X766713Y1138290D02*
X770326Y1138290D01*
X766713Y1138291D02*
X766594Y1138293D01*
X766474Y1138299D01*
X766355Y1138309D01*
X766237Y1138323D01*
X766118Y1138340D01*
X766001Y1138362D01*
X765884Y1138387D01*
X765769Y1138417D01*
X765654Y1138450D01*
X765540Y1138487D01*
X765428Y1138527D01*
X765317Y1138572D01*
X765208Y1138620D01*
X765100Y1138671D01*
X764994Y1138726D01*
X764890Y1138785D01*
X764788Y1138847D01*
X764688Y1138912D01*
X764590Y1138981D01*
X764494Y1139053D01*
X764401Y1139128D01*
X764311Y1139205D01*
X764223Y1139286D01*
X764138Y1139370D01*
X764056Y1139457D01*
X763976Y1139546D01*
X763900Y1139638D01*
X763826Y1139732D01*
X763756Y1139829D01*
X763689Y1139927D01*
X763625Y1140028D01*
X763565Y1140132D01*
X763508Y1140237D01*
X763455Y1140344D01*
X763405Y1140452D01*
X763359Y1140562D01*
X763317Y1140674D01*
X763278Y1140787D01*
X763243Y1140901D01*
X763212Y1141016D01*
X763184Y1141133D01*
X763161Y1141250D01*
X763141Y1141367D01*
X763125Y1141486D01*
X763113Y1141605D01*
X763105Y1141724D01*
X763101Y1141843D01*
X763101Y1141963D01*
X763105Y1142082D01*
X763113Y1142201D01*
X763125Y1142320D01*
X763141Y1142439D01*
X763161Y1142556D01*
X763184Y1142673D01*
X763212Y1142790D01*
X763243Y1142905D01*
X763278Y1143019D01*
X763317Y1143132D01*
X763359Y1143244D01*
X763405Y1143354D01*
X763455Y1143462D01*
X763508Y1143569D01*
X763565Y1143674D01*
X763625Y1143778D01*
X763689Y1143879D01*
X763756Y1143977D01*
X763826Y1144074D01*
X763900Y1144168D01*
X763976Y1144260D01*
X764056Y1144349D01*
X764138Y1144436D01*
X764223Y1144520D01*
X764311Y1144601D01*
X764401Y1144678D01*
X764494Y1144753D01*
X764590Y1144825D01*
X764688Y1144894D01*
X764788Y1144959D01*
X764890Y1145021D01*
X764994Y1145080D01*
X765100Y1145135D01*
X765208Y1145186D01*
X765317Y1145234D01*
X765428Y1145279D01*
X765540Y1145319D01*
X765654Y1145356D01*
X765769Y1145389D01*
X765884Y1145419D01*
X766001Y1145444D01*
X766118Y1145466D01*
X766237Y1145483D01*
X766355Y1145497D01*
X766474Y1145507D01*
X766594Y1145513D01*
X766713Y1145515D01*
X770326Y1145515D01*
X770445Y1145513D01*
X770565Y1145507D01*
X770684Y1145497D01*
X770802Y1145483D01*
X770921Y1145466D01*
X771038Y1145444D01*
X771155Y1145419D01*
X771270Y1145389D01*
X771385Y1145356D01*
X771499Y1145319D01*
X771611Y1145279D01*
X771722Y1145234D01*
X771831Y1145186D01*
X771939Y1145135D01*
X772045Y1145080D01*
X772149Y1145021D01*
X772251Y1144959D01*
X772351Y1144894D01*
X772449Y1144825D01*
X772545Y1144753D01*
X772638Y1144678D01*
X772728Y1144601D01*
X772816Y1144520D01*
X772901Y1144436D01*
X772983Y1144349D01*
X773063Y1144260D01*
X773139Y1144168D01*
X773213Y1144074D01*
X773283Y1143977D01*
X773350Y1143879D01*
X773414Y1143778D01*
X773474Y1143674D01*
X773531Y1143569D01*
X773584Y1143462D01*
X773634Y1143354D01*
X773680Y1143244D01*
X773722Y1143132D01*
X773761Y1143019D01*
X773796Y1142905D01*
X773827Y1142790D01*
X773855Y1142673D01*
X773878Y1142556D01*
X773898Y1142439D01*
X773914Y1142320D01*
X773926Y1142201D01*
X773934Y1142082D01*
X773938Y1141963D01*
X773938Y1141843D01*
X773934Y1141724D01*
X773926Y1141605D01*
X773914Y1141486D01*
X773898Y1141367D01*
X773878Y1141250D01*
X773855Y1141133D01*
X773827Y1141016D01*
X773796Y1140901D01*
X773761Y1140787D01*
X773722Y1140674D01*
X773680Y1140562D01*
X773634Y1140452D01*
X773584Y1140344D01*
X773531Y1140237D01*
X773474Y1140132D01*
X773414Y1140028D01*
X773350Y1139927D01*
X773283Y1139829D01*
X773213Y1139732D01*
X773139Y1139638D01*
X773063Y1139546D01*
X772983Y1139457D01*
X772901Y1139370D01*
X772816Y1139286D01*
X772728Y1139205D01*
X772638Y1139128D01*
X772545Y1139053D01*
X772449Y1138981D01*
X772351Y1138912D01*
X772251Y1138847D01*
X772149Y1138785D01*
X772045Y1138726D01*
X771939Y1138671D01*
X771831Y1138620D01*
X771722Y1138572D01*
X771611Y1138527D01*
X771499Y1138487D01*
X771385Y1138450D01*
X771270Y1138417D01*
X771155Y1138387D01*
X771038Y1138362D01*
X770921Y1138340D01*
X770802Y1138323D01*
X770684Y1138309D01*
X770565Y1138299D01*
X770445Y1138293D01*
X770326Y1138291D01*
X771229Y1152074D02*
X757682Y1152074D01*
X771229Y1152075D02*
X771330Y1152077D01*
X771431Y1152083D01*
X771532Y1152092D01*
X771633Y1152105D01*
X771733Y1152122D01*
X771832Y1152143D01*
X771930Y1152167D01*
X772027Y1152195D01*
X772124Y1152227D01*
X772219Y1152262D01*
X772312Y1152301D01*
X772404Y1152343D01*
X772495Y1152389D01*
X772584Y1152438D01*
X772670Y1152490D01*
X772755Y1152546D01*
X772838Y1152604D01*
X772918Y1152666D01*
X772996Y1152731D01*
X773072Y1152798D01*
X773145Y1152868D01*
X773215Y1152941D01*
X773282Y1153017D01*
X773347Y1153095D01*
X773409Y1153175D01*
X773467Y1153258D01*
X773523Y1153343D01*
X773575Y1153430D01*
X773624Y1153518D01*
X773670Y1153609D01*
X773712Y1153701D01*
X773751Y1153794D01*
X773786Y1153889D01*
X773818Y1153986D01*
X773846Y1154083D01*
X773870Y1154181D01*
X773891Y1154280D01*
X773908Y1154380D01*
X773921Y1154481D01*
X773930Y1154582D01*
X773936Y1154683D01*
X773938Y1154784D01*
X771229Y1160411D02*
X757682Y1160411D01*
X771229Y1160411D02*
X771330Y1160413D01*
X771431Y1160419D01*
X771532Y1160428D01*
X771633Y1160441D01*
X771733Y1160458D01*
X771832Y1160479D01*
X771930Y1160503D01*
X772027Y1160531D01*
X772124Y1160563D01*
X772219Y1160598D01*
X772312Y1160637D01*
X772404Y1160679D01*
X772495Y1160725D01*
X772584Y1160774D01*
X772670Y1160826D01*
X772755Y1160882D01*
X772838Y1160940D01*
X772918Y1161002D01*
X772996Y1161067D01*
X773072Y1161134D01*
X773145Y1161204D01*
X773215Y1161277D01*
X773282Y1161353D01*
X773347Y1161431D01*
X773409Y1161511D01*
X773467Y1161594D01*
X773523Y1161679D01*
X773575Y1161766D01*
X773624Y1161854D01*
X773670Y1161945D01*
X773712Y1162037D01*
X773751Y1162130D01*
X773786Y1162225D01*
X773818Y1162322D01*
X773846Y1162419D01*
X773870Y1162517D01*
X773891Y1162616D01*
X773908Y1162716D01*
X773921Y1162817D01*
X773930Y1162918D01*
X773936Y1163019D01*
X773938Y1163120D01*
X773938Y1171220D02*
X773938Y1175736D01*
X773938Y1171220D02*
X773936Y1171119D01*
X773930Y1171018D01*
X773921Y1170917D01*
X773908Y1170816D01*
X773891Y1170716D01*
X773870Y1170617D01*
X773846Y1170519D01*
X773818Y1170422D01*
X773786Y1170325D01*
X773751Y1170230D01*
X773712Y1170137D01*
X773670Y1170045D01*
X773624Y1169954D01*
X773575Y1169866D01*
X773523Y1169779D01*
X773467Y1169694D01*
X773409Y1169611D01*
X773347Y1169531D01*
X773282Y1169453D01*
X773215Y1169377D01*
X773145Y1169304D01*
X773072Y1169234D01*
X772996Y1169167D01*
X772918Y1169102D01*
X772838Y1169040D01*
X772755Y1168982D01*
X772670Y1168926D01*
X772584Y1168874D01*
X772495Y1168825D01*
X772404Y1168779D01*
X772312Y1168737D01*
X772219Y1168698D01*
X772124Y1168663D01*
X772027Y1168631D01*
X771930Y1168603D01*
X771832Y1168579D01*
X771733Y1168558D01*
X771633Y1168541D01*
X771532Y1168528D01*
X771431Y1168519D01*
X771330Y1168513D01*
X771229Y1168511D01*
X766713Y1168511D01*
X766594Y1168513D01*
X766474Y1168519D01*
X766355Y1168529D01*
X766237Y1168543D01*
X766118Y1168560D01*
X766001Y1168582D01*
X765884Y1168607D01*
X765769Y1168637D01*
X765654Y1168670D01*
X765540Y1168707D01*
X765428Y1168747D01*
X765317Y1168792D01*
X765208Y1168840D01*
X765100Y1168891D01*
X764994Y1168946D01*
X764890Y1169005D01*
X764788Y1169067D01*
X764688Y1169132D01*
X764590Y1169201D01*
X764494Y1169273D01*
X764401Y1169348D01*
X764311Y1169425D01*
X764223Y1169506D01*
X764138Y1169590D01*
X764056Y1169677D01*
X763976Y1169766D01*
X763900Y1169858D01*
X763826Y1169952D01*
X763756Y1170049D01*
X763689Y1170147D01*
X763625Y1170248D01*
X763565Y1170352D01*
X763508Y1170457D01*
X763455Y1170564D01*
X763405Y1170672D01*
X763359Y1170782D01*
X763317Y1170894D01*
X763278Y1171007D01*
X763243Y1171121D01*
X763212Y1171236D01*
X763184Y1171353D01*
X763161Y1171470D01*
X763141Y1171587D01*
X763125Y1171706D01*
X763113Y1171825D01*
X763105Y1171944D01*
X763101Y1172063D01*
X763101Y1172183D01*
X763105Y1172302D01*
X763113Y1172421D01*
X763125Y1172540D01*
X763141Y1172659D01*
X763161Y1172776D01*
X763184Y1172893D01*
X763212Y1173010D01*
X763243Y1173125D01*
X763278Y1173239D01*
X763317Y1173352D01*
X763359Y1173464D01*
X763405Y1173574D01*
X763455Y1173682D01*
X763508Y1173789D01*
X763565Y1173894D01*
X763625Y1173998D01*
X763689Y1174099D01*
X763756Y1174197D01*
X763826Y1174294D01*
X763900Y1174388D01*
X763976Y1174480D01*
X764056Y1174569D01*
X764138Y1174656D01*
X764223Y1174740D01*
X764311Y1174821D01*
X764401Y1174898D01*
X764494Y1174973D01*
X764590Y1175045D01*
X764688Y1175114D01*
X764788Y1175179D01*
X764890Y1175241D01*
X764994Y1175300D01*
X765100Y1175355D01*
X765208Y1175406D01*
X765317Y1175454D01*
X765428Y1175499D01*
X765540Y1175539D01*
X765654Y1175576D01*
X765769Y1175609D01*
X765884Y1175639D01*
X766001Y1175664D01*
X766118Y1175686D01*
X766237Y1175703D01*
X766355Y1175717D01*
X766474Y1175727D01*
X766594Y1175733D01*
X766713Y1175735D01*
X766713Y1175736D02*
X768519Y1175736D01*
X768519Y1168511D01*
X773938Y1182664D02*
X763101Y1182664D01*
X763101Y1188082D01*
X764907Y1188082D01*
X795782Y864362D02*
X812038Y864362D01*
X804813Y869781D02*
X795782Y864362D01*
X804813Y869781D02*
X795782Y875199D01*
X812038Y875199D01*
X812038Y885030D02*
X812038Y889545D01*
X812038Y885030D02*
X812036Y884929D01*
X812030Y884828D01*
X812021Y884727D01*
X812008Y884626D01*
X811991Y884526D01*
X811970Y884427D01*
X811946Y884329D01*
X811918Y884232D01*
X811886Y884135D01*
X811851Y884040D01*
X811812Y883947D01*
X811770Y883855D01*
X811724Y883764D01*
X811675Y883676D01*
X811623Y883589D01*
X811567Y883504D01*
X811509Y883421D01*
X811447Y883341D01*
X811382Y883263D01*
X811315Y883187D01*
X811245Y883114D01*
X811172Y883044D01*
X811096Y882977D01*
X811018Y882912D01*
X810938Y882850D01*
X810855Y882792D01*
X810770Y882736D01*
X810684Y882684D01*
X810595Y882635D01*
X810504Y882589D01*
X810412Y882547D01*
X810319Y882508D01*
X810224Y882473D01*
X810127Y882441D01*
X810030Y882413D01*
X809932Y882389D01*
X809833Y882368D01*
X809733Y882351D01*
X809632Y882338D01*
X809531Y882329D01*
X809430Y882323D01*
X809329Y882321D01*
X804813Y882321D01*
X804694Y882323D01*
X804574Y882329D01*
X804455Y882339D01*
X804337Y882353D01*
X804218Y882370D01*
X804101Y882392D01*
X803984Y882417D01*
X803869Y882447D01*
X803754Y882480D01*
X803640Y882517D01*
X803528Y882557D01*
X803417Y882602D01*
X803308Y882650D01*
X803200Y882701D01*
X803094Y882756D01*
X802990Y882815D01*
X802888Y882877D01*
X802788Y882942D01*
X802690Y883011D01*
X802594Y883083D01*
X802501Y883158D01*
X802411Y883235D01*
X802323Y883316D01*
X802238Y883400D01*
X802156Y883487D01*
X802076Y883576D01*
X802000Y883668D01*
X801926Y883762D01*
X801856Y883859D01*
X801789Y883957D01*
X801725Y884058D01*
X801665Y884162D01*
X801608Y884267D01*
X801555Y884374D01*
X801505Y884482D01*
X801459Y884592D01*
X801417Y884704D01*
X801378Y884817D01*
X801343Y884931D01*
X801312Y885046D01*
X801284Y885163D01*
X801261Y885280D01*
X801241Y885397D01*
X801225Y885516D01*
X801213Y885635D01*
X801205Y885754D01*
X801201Y885873D01*
X801201Y885993D01*
X801205Y886112D01*
X801213Y886231D01*
X801225Y886350D01*
X801241Y886469D01*
X801261Y886586D01*
X801284Y886703D01*
X801312Y886820D01*
X801343Y886935D01*
X801378Y887049D01*
X801417Y887162D01*
X801459Y887274D01*
X801505Y887384D01*
X801555Y887492D01*
X801608Y887599D01*
X801665Y887704D01*
X801725Y887808D01*
X801789Y887909D01*
X801856Y888007D01*
X801926Y888104D01*
X802000Y888198D01*
X802076Y888290D01*
X802156Y888379D01*
X802238Y888466D01*
X802323Y888550D01*
X802411Y888631D01*
X802501Y888708D01*
X802594Y888783D01*
X802690Y888855D01*
X802788Y888924D01*
X802888Y888989D01*
X802990Y889051D01*
X803094Y889110D01*
X803200Y889165D01*
X803308Y889216D01*
X803417Y889264D01*
X803528Y889309D01*
X803640Y889349D01*
X803754Y889386D01*
X803869Y889419D01*
X803984Y889449D01*
X804101Y889474D01*
X804218Y889496D01*
X804337Y889513D01*
X804455Y889527D01*
X804574Y889537D01*
X804694Y889543D01*
X804813Y889545D01*
X806619Y889545D01*
X806619Y882321D01*
X801201Y896473D02*
X812038Y896473D01*
X801201Y896473D02*
X801201Y901892D01*
X803007Y901892D01*
X801201Y907415D02*
X812038Y907415D01*
X801201Y907415D02*
X801201Y912834D01*
X803007Y912834D01*
X801201Y917716D02*
X812038Y917716D01*
X796685Y917265D02*
X795782Y917265D01*
X795782Y918168D01*
X796685Y918168D01*
X796685Y917265D01*
X812038Y926731D02*
X812038Y930343D01*
X812038Y926731D02*
X812036Y926630D01*
X812030Y926529D01*
X812021Y926428D01*
X812008Y926327D01*
X811991Y926227D01*
X811970Y926128D01*
X811946Y926030D01*
X811918Y925933D01*
X811886Y925836D01*
X811851Y925741D01*
X811812Y925648D01*
X811770Y925556D01*
X811724Y925465D01*
X811675Y925377D01*
X811623Y925290D01*
X811567Y925205D01*
X811509Y925122D01*
X811447Y925042D01*
X811382Y924964D01*
X811315Y924888D01*
X811245Y924815D01*
X811172Y924745D01*
X811096Y924678D01*
X811018Y924613D01*
X810938Y924551D01*
X810855Y924493D01*
X810770Y924437D01*
X810684Y924385D01*
X810595Y924336D01*
X810504Y924290D01*
X810412Y924248D01*
X810319Y924209D01*
X810224Y924174D01*
X810127Y924142D01*
X810030Y924114D01*
X809932Y924090D01*
X809833Y924069D01*
X809733Y924052D01*
X809632Y924039D01*
X809531Y924030D01*
X809430Y924024D01*
X809329Y924022D01*
X809329Y924021D02*
X803910Y924021D01*
X803910Y924022D02*
X803809Y924024D01*
X803708Y924030D01*
X803607Y924039D01*
X803506Y924052D01*
X803406Y924069D01*
X803307Y924090D01*
X803209Y924114D01*
X803112Y924142D01*
X803015Y924174D01*
X802920Y924209D01*
X802827Y924248D01*
X802735Y924290D01*
X802644Y924336D01*
X802556Y924385D01*
X802469Y924437D01*
X802384Y924493D01*
X802301Y924551D01*
X802221Y924613D01*
X802143Y924678D01*
X802067Y924745D01*
X801994Y924815D01*
X801924Y924888D01*
X801857Y924964D01*
X801792Y925042D01*
X801730Y925122D01*
X801672Y925205D01*
X801616Y925290D01*
X801564Y925377D01*
X801515Y925465D01*
X801469Y925556D01*
X801427Y925648D01*
X801388Y925741D01*
X801353Y925836D01*
X801321Y925933D01*
X801293Y926030D01*
X801269Y926128D01*
X801248Y926227D01*
X801231Y926327D01*
X801218Y926428D01*
X801209Y926529D01*
X801203Y926630D01*
X801201Y926731D01*
X801201Y930343D01*
X795782Y936678D02*
X812038Y936678D01*
X806619Y936678D02*
X801201Y943902D01*
X804362Y939838D02*
X812038Y943902D01*
X812038Y962908D02*
X812036Y963026D01*
X812030Y963144D01*
X812021Y963262D01*
X812007Y963379D01*
X811990Y963496D01*
X811969Y963613D01*
X811944Y963728D01*
X811915Y963843D01*
X811882Y963957D01*
X811846Y964069D01*
X811806Y964180D01*
X811763Y964290D01*
X811716Y964399D01*
X811666Y964506D01*
X811611Y964611D01*
X811554Y964714D01*
X811493Y964815D01*
X811429Y964915D01*
X811362Y965012D01*
X811292Y965107D01*
X811218Y965199D01*
X811142Y965290D01*
X811062Y965377D01*
X810980Y965462D01*
X810895Y965544D01*
X810808Y965624D01*
X810717Y965700D01*
X810625Y965774D01*
X810530Y965844D01*
X810433Y965911D01*
X810333Y965975D01*
X810232Y966036D01*
X810129Y966093D01*
X810024Y966148D01*
X809917Y966198D01*
X809808Y966245D01*
X809698Y966288D01*
X809587Y966328D01*
X809475Y966364D01*
X809361Y966397D01*
X809246Y966426D01*
X809131Y966451D01*
X809014Y966472D01*
X808897Y966489D01*
X808780Y966503D01*
X808662Y966512D01*
X808544Y966518D01*
X808426Y966520D01*
X812038Y962908D02*
X812036Y962725D01*
X812029Y962543D01*
X812018Y962361D01*
X812003Y962179D01*
X811983Y961997D01*
X811960Y961816D01*
X811931Y961636D01*
X811899Y961456D01*
X811862Y961277D01*
X811821Y961100D01*
X811775Y960923D01*
X811726Y960747D01*
X811672Y960573D01*
X811614Y960399D01*
X811552Y960228D01*
X811486Y960058D01*
X811415Y959889D01*
X811341Y959722D01*
X811263Y959557D01*
X811181Y959394D01*
X811095Y959233D01*
X811005Y959074D01*
X810911Y958917D01*
X810814Y958763D01*
X810713Y958611D01*
X810608Y958461D01*
X810500Y958314D01*
X810389Y958170D01*
X810274Y958028D01*
X810155Y957889D01*
X810033Y957753D01*
X809908Y957620D01*
X809780Y957490D01*
X799394Y957941D02*
X799276Y957943D01*
X799158Y957949D01*
X799040Y957958D01*
X798923Y957972D01*
X798806Y957989D01*
X798689Y958010D01*
X798574Y958035D01*
X798459Y958064D01*
X798345Y958097D01*
X798233Y958133D01*
X798122Y958173D01*
X798012Y958216D01*
X797903Y958263D01*
X797796Y958313D01*
X797691Y958368D01*
X797588Y958425D01*
X797487Y958486D01*
X797387Y958550D01*
X797290Y958617D01*
X797195Y958687D01*
X797103Y958761D01*
X797012Y958837D01*
X796925Y958917D01*
X796840Y958999D01*
X796758Y959084D01*
X796678Y959171D01*
X796602Y959262D01*
X796528Y959354D01*
X796458Y959449D01*
X796391Y959546D01*
X796327Y959646D01*
X796266Y959747D01*
X796209Y959850D01*
X796154Y959955D01*
X796104Y960062D01*
X796057Y960171D01*
X796014Y960281D01*
X795974Y960392D01*
X795938Y960504D01*
X795905Y960618D01*
X795876Y960733D01*
X795851Y960848D01*
X795830Y960965D01*
X795813Y961082D01*
X795799Y961199D01*
X795790Y961317D01*
X795784Y961435D01*
X795782Y961553D01*
X795784Y961714D01*
X795790Y961876D01*
X795799Y962037D01*
X795813Y962198D01*
X795830Y962358D01*
X795851Y962518D01*
X795876Y962678D01*
X795905Y962837D01*
X795937Y962995D01*
X795973Y963152D01*
X796013Y963308D01*
X796057Y963464D01*
X796105Y963618D01*
X796156Y963771D01*
X796210Y963923D01*
X796269Y964074D01*
X796330Y964223D01*
X796396Y964370D01*
X796465Y964516D01*
X796537Y964661D01*
X796613Y964803D01*
X796692Y964944D01*
X796774Y965083D01*
X796860Y965219D01*
X796949Y965354D01*
X797041Y965487D01*
X797137Y965617D01*
X802555Y959747D02*
X802493Y959646D01*
X802428Y959546D01*
X802359Y959449D01*
X802287Y959354D01*
X802213Y959261D01*
X802135Y959171D01*
X802054Y959083D01*
X801971Y958998D01*
X801885Y958916D01*
X801796Y958837D01*
X801705Y958760D01*
X801611Y958687D01*
X801515Y958616D01*
X801417Y958549D01*
X801317Y958485D01*
X801214Y958424D01*
X801110Y958367D01*
X801004Y958313D01*
X800896Y958263D01*
X800787Y958216D01*
X800676Y958172D01*
X800564Y958132D01*
X800450Y958096D01*
X800336Y958064D01*
X800220Y958035D01*
X800104Y958010D01*
X799987Y957989D01*
X799869Y957972D01*
X799751Y957958D01*
X799632Y957949D01*
X799513Y957943D01*
X799394Y957941D01*
X805265Y964715D02*
X805327Y964816D01*
X805392Y964916D01*
X805461Y965013D01*
X805533Y965108D01*
X805607Y965201D01*
X805685Y965291D01*
X805766Y965379D01*
X805849Y965464D01*
X805935Y965546D01*
X806024Y965625D01*
X806115Y965702D01*
X806209Y965775D01*
X806305Y965846D01*
X806403Y965913D01*
X806503Y965977D01*
X806606Y966038D01*
X806710Y966095D01*
X806816Y966149D01*
X806924Y966199D01*
X807033Y966246D01*
X807144Y966290D01*
X807256Y966330D01*
X807370Y966366D01*
X807484Y966398D01*
X807600Y966427D01*
X807716Y966452D01*
X807833Y966473D01*
X807951Y966490D01*
X808069Y966504D01*
X808188Y966513D01*
X808307Y966519D01*
X808426Y966521D01*
X805265Y964714D02*
X802555Y959747D01*
X795782Y972697D02*
X809329Y972697D01*
X809329Y972698D02*
X809430Y972700D01*
X809531Y972706D01*
X809632Y972715D01*
X809733Y972728D01*
X809833Y972745D01*
X809932Y972766D01*
X810030Y972790D01*
X810127Y972818D01*
X810224Y972850D01*
X810319Y972885D01*
X810412Y972924D01*
X810504Y972966D01*
X810595Y973012D01*
X810684Y973061D01*
X810770Y973113D01*
X810855Y973169D01*
X810938Y973227D01*
X811018Y973289D01*
X811096Y973354D01*
X811172Y973421D01*
X811245Y973491D01*
X811315Y973564D01*
X811382Y973640D01*
X811447Y973718D01*
X811509Y973798D01*
X811567Y973881D01*
X811623Y973966D01*
X811675Y974053D01*
X811724Y974141D01*
X811770Y974232D01*
X811812Y974324D01*
X811851Y974417D01*
X811886Y974512D01*
X811918Y974609D01*
X811946Y974706D01*
X811970Y974804D01*
X811991Y974903D01*
X812008Y975003D01*
X812021Y975104D01*
X812030Y975205D01*
X812036Y975306D01*
X812038Y975407D01*
X805716Y983885D02*
X805716Y987949D01*
X805716Y983885D02*
X805718Y983773D01*
X805724Y983662D01*
X805734Y983551D01*
X805747Y983440D01*
X805765Y983330D01*
X805787Y983221D01*
X805812Y983112D01*
X805841Y983004D01*
X805874Y982898D01*
X805911Y982792D01*
X805951Y982688D01*
X805995Y982586D01*
X806043Y982485D01*
X806094Y982386D01*
X806149Y982288D01*
X806207Y982193D01*
X806268Y982100D01*
X806333Y982009D01*
X806401Y981920D01*
X806472Y981834D01*
X806545Y981751D01*
X806622Y981670D01*
X806702Y981591D01*
X806784Y981516D01*
X806869Y981444D01*
X806956Y981374D01*
X807046Y981308D01*
X807138Y981245D01*
X807233Y981185D01*
X807329Y981129D01*
X807427Y981076D01*
X807527Y981027D01*
X807629Y980981D01*
X807732Y980939D01*
X807837Y980900D01*
X807943Y980865D01*
X808050Y980834D01*
X808158Y980807D01*
X808267Y980783D01*
X808377Y980764D01*
X808487Y980748D01*
X808598Y980736D01*
X808710Y980728D01*
X808821Y980724D01*
X808933Y980724D01*
X809044Y980728D01*
X809156Y980736D01*
X809267Y980748D01*
X809377Y980764D01*
X809487Y980783D01*
X809596Y980807D01*
X809704Y980834D01*
X809811Y980865D01*
X809917Y980900D01*
X810022Y980939D01*
X810125Y980981D01*
X810227Y981027D01*
X810327Y981076D01*
X810425Y981129D01*
X810521Y981185D01*
X810616Y981245D01*
X810708Y981308D01*
X810798Y981374D01*
X810885Y981444D01*
X810970Y981516D01*
X811052Y981591D01*
X811132Y981670D01*
X811209Y981751D01*
X811282Y981834D01*
X811353Y981920D01*
X811421Y982009D01*
X811486Y982100D01*
X811547Y982193D01*
X811605Y982288D01*
X811660Y982386D01*
X811711Y982485D01*
X811759Y982586D01*
X811803Y982688D01*
X811843Y982792D01*
X811880Y982898D01*
X811913Y983004D01*
X811942Y983112D01*
X811967Y983221D01*
X811989Y983330D01*
X812007Y983440D01*
X812020Y983551D01*
X812030Y983662D01*
X812036Y983773D01*
X812038Y983885D01*
X812038Y987949D01*
X803910Y987949D01*
X803910Y987948D02*
X803809Y987946D01*
X803708Y987940D01*
X803607Y987931D01*
X803506Y987918D01*
X803406Y987901D01*
X803307Y987880D01*
X803209Y987856D01*
X803112Y987828D01*
X803015Y987796D01*
X802920Y987761D01*
X802827Y987722D01*
X802735Y987680D01*
X802644Y987634D01*
X802556Y987585D01*
X802469Y987533D01*
X802384Y987477D01*
X802301Y987419D01*
X802221Y987357D01*
X802143Y987292D01*
X802067Y987225D01*
X801994Y987155D01*
X801924Y987082D01*
X801857Y987006D01*
X801792Y986928D01*
X801730Y986848D01*
X801672Y986765D01*
X801616Y986680D01*
X801564Y986594D01*
X801515Y986505D01*
X801469Y986414D01*
X801427Y986322D01*
X801388Y986229D01*
X801353Y986134D01*
X801321Y986037D01*
X801293Y985940D01*
X801269Y985842D01*
X801248Y985743D01*
X801231Y985643D01*
X801218Y985542D01*
X801209Y985441D01*
X801203Y985340D01*
X801201Y985239D01*
X801201Y981627D01*
X801201Y995386D02*
X812038Y995386D01*
X801201Y995386D02*
X801201Y999902D01*
X801203Y1000006D01*
X801209Y1000109D01*
X801219Y1000213D01*
X801233Y1000316D01*
X801251Y1000418D01*
X801272Y1000519D01*
X801298Y1000620D01*
X801327Y1000719D01*
X801360Y1000818D01*
X801397Y1000915D01*
X801438Y1001010D01*
X801482Y1001104D01*
X801530Y1001196D01*
X801581Y1001286D01*
X801636Y1001375D01*
X801694Y1001461D01*
X801756Y1001544D01*
X801820Y1001626D01*
X801888Y1001704D01*
X801958Y1001780D01*
X802031Y1001854D01*
X802108Y1001924D01*
X802186Y1001992D01*
X802268Y1002056D01*
X802351Y1002118D01*
X802437Y1002176D01*
X802526Y1002231D01*
X802616Y1002282D01*
X802708Y1002330D01*
X802802Y1002374D01*
X802897Y1002415D01*
X802994Y1002452D01*
X803093Y1002485D01*
X803192Y1002514D01*
X803293Y1002540D01*
X803394Y1002561D01*
X803496Y1002579D01*
X803599Y1002593D01*
X803703Y1002603D01*
X803806Y1002609D01*
X803910Y1002611D01*
X812038Y1002611D01*
X812038Y1012164D02*
X812038Y1016679D01*
X812038Y1012164D02*
X812036Y1012063D01*
X812030Y1011962D01*
X812021Y1011861D01*
X812008Y1011760D01*
X811991Y1011660D01*
X811970Y1011561D01*
X811946Y1011463D01*
X811918Y1011366D01*
X811886Y1011269D01*
X811851Y1011174D01*
X811812Y1011081D01*
X811770Y1010989D01*
X811724Y1010898D01*
X811675Y1010810D01*
X811623Y1010723D01*
X811567Y1010638D01*
X811509Y1010555D01*
X811447Y1010475D01*
X811382Y1010397D01*
X811315Y1010321D01*
X811245Y1010248D01*
X811172Y1010178D01*
X811096Y1010111D01*
X811018Y1010046D01*
X810938Y1009984D01*
X810855Y1009926D01*
X810770Y1009870D01*
X810684Y1009818D01*
X810595Y1009769D01*
X810504Y1009723D01*
X810412Y1009681D01*
X810319Y1009642D01*
X810224Y1009607D01*
X810127Y1009575D01*
X810030Y1009547D01*
X809932Y1009523D01*
X809833Y1009502D01*
X809733Y1009485D01*
X809632Y1009472D01*
X809531Y1009463D01*
X809430Y1009457D01*
X809329Y1009455D01*
X809329Y1009454D02*
X804813Y1009454D01*
X804813Y1009455D02*
X804694Y1009457D01*
X804574Y1009463D01*
X804455Y1009473D01*
X804337Y1009487D01*
X804218Y1009504D01*
X804101Y1009526D01*
X803984Y1009551D01*
X803869Y1009581D01*
X803754Y1009614D01*
X803640Y1009651D01*
X803528Y1009691D01*
X803417Y1009736D01*
X803308Y1009784D01*
X803200Y1009835D01*
X803094Y1009890D01*
X802990Y1009949D01*
X802888Y1010011D01*
X802788Y1010076D01*
X802690Y1010145D01*
X802594Y1010217D01*
X802501Y1010292D01*
X802411Y1010369D01*
X802323Y1010450D01*
X802238Y1010534D01*
X802156Y1010621D01*
X802076Y1010710D01*
X802000Y1010802D01*
X801926Y1010896D01*
X801856Y1010993D01*
X801789Y1011091D01*
X801725Y1011192D01*
X801665Y1011296D01*
X801608Y1011401D01*
X801555Y1011508D01*
X801505Y1011616D01*
X801459Y1011726D01*
X801417Y1011838D01*
X801378Y1011951D01*
X801343Y1012065D01*
X801312Y1012180D01*
X801284Y1012297D01*
X801261Y1012414D01*
X801241Y1012531D01*
X801225Y1012650D01*
X801213Y1012769D01*
X801205Y1012888D01*
X801201Y1013007D01*
X801201Y1013127D01*
X801205Y1013246D01*
X801213Y1013365D01*
X801225Y1013484D01*
X801241Y1013603D01*
X801261Y1013720D01*
X801284Y1013837D01*
X801312Y1013954D01*
X801343Y1014069D01*
X801378Y1014183D01*
X801417Y1014296D01*
X801459Y1014408D01*
X801505Y1014518D01*
X801555Y1014626D01*
X801608Y1014733D01*
X801665Y1014838D01*
X801725Y1014942D01*
X801789Y1015043D01*
X801856Y1015141D01*
X801926Y1015238D01*
X802000Y1015332D01*
X802076Y1015424D01*
X802156Y1015513D01*
X802238Y1015600D01*
X802323Y1015684D01*
X802411Y1015765D01*
X802501Y1015842D01*
X802594Y1015917D01*
X802690Y1015989D01*
X802788Y1016058D01*
X802888Y1016123D01*
X802990Y1016185D01*
X803094Y1016244D01*
X803200Y1016299D01*
X803308Y1016350D01*
X803417Y1016398D01*
X803528Y1016443D01*
X803640Y1016483D01*
X803754Y1016520D01*
X803869Y1016553D01*
X803984Y1016583D01*
X804101Y1016608D01*
X804218Y1016630D01*
X804337Y1016647D01*
X804455Y1016661D01*
X804574Y1016671D01*
X804694Y1016677D01*
X804813Y1016679D01*
X806619Y1016679D01*
X806619Y1009454D01*
X812038Y1022462D02*
X812038Y1023365D01*
X812038Y1022462D02*
X811135Y1022462D01*
X811135Y1023365D01*
X812038Y1023365D01*
X815650Y1022010D01*
X795782Y1042697D02*
X795784Y1042822D01*
X795790Y1042947D01*
X795799Y1043072D01*
X795813Y1043196D01*
X795830Y1043320D01*
X795851Y1043444D01*
X795876Y1043566D01*
X795905Y1043688D01*
X795937Y1043809D01*
X795973Y1043929D01*
X796013Y1044048D01*
X796056Y1044165D01*
X796103Y1044281D01*
X796154Y1044396D01*
X796208Y1044508D01*
X796266Y1044620D01*
X796326Y1044729D01*
X796391Y1044836D01*
X796458Y1044942D01*
X796529Y1045045D01*
X796603Y1045146D01*
X796680Y1045245D01*
X796760Y1045341D01*
X796843Y1045435D01*
X796928Y1045526D01*
X797017Y1045615D01*
X797108Y1045700D01*
X797202Y1045783D01*
X797298Y1045863D01*
X797397Y1045940D01*
X797498Y1046014D01*
X797601Y1046085D01*
X797707Y1046152D01*
X797814Y1046217D01*
X797923Y1046277D01*
X798035Y1046335D01*
X798147Y1046389D01*
X798262Y1046440D01*
X798378Y1046487D01*
X798495Y1046530D01*
X798614Y1046570D01*
X798734Y1046606D01*
X798855Y1046638D01*
X798977Y1046667D01*
X799099Y1046692D01*
X799223Y1046713D01*
X799347Y1046730D01*
X799471Y1046744D01*
X799596Y1046753D01*
X799721Y1046759D01*
X799846Y1046761D01*
X795782Y1042697D02*
X795784Y1042554D01*
X795790Y1042412D01*
X795800Y1042269D01*
X795813Y1042127D01*
X795831Y1041986D01*
X795852Y1041844D01*
X795877Y1041704D01*
X795906Y1041564D01*
X795939Y1041425D01*
X795976Y1041287D01*
X796016Y1041150D01*
X796060Y1041015D01*
X796108Y1040880D01*
X796160Y1040747D01*
X796215Y1040615D01*
X796274Y1040485D01*
X796336Y1040357D01*
X796402Y1040230D01*
X796471Y1040105D01*
X796543Y1039982D01*
X796619Y1039861D01*
X796698Y1039743D01*
X796781Y1039626D01*
X796866Y1039512D01*
X796955Y1039400D01*
X797046Y1039291D01*
X797141Y1039184D01*
X797238Y1039079D01*
X797339Y1038978D01*
X797442Y1038879D01*
X797547Y1038783D01*
X797656Y1038690D01*
X797767Y1038600D01*
X797880Y1038513D01*
X797995Y1038429D01*
X798113Y1038349D01*
X798233Y1038271D01*
X798355Y1038197D01*
X798479Y1038127D01*
X798605Y1038059D01*
X798733Y1037996D01*
X798862Y1037935D01*
X798993Y1037878D01*
X799125Y1037825D01*
X799259Y1037776D01*
X799394Y1037730D01*
X803007Y1045406D02*
X802915Y1045500D01*
X802821Y1045590D01*
X802724Y1045678D01*
X802624Y1045763D01*
X802522Y1045845D01*
X802417Y1045923D01*
X802310Y1045999D01*
X802201Y1046071D01*
X802090Y1046140D01*
X801976Y1046206D01*
X801861Y1046268D01*
X801744Y1046327D01*
X801625Y1046382D01*
X801505Y1046433D01*
X801383Y1046481D01*
X801260Y1046526D01*
X801136Y1046566D01*
X801010Y1046603D01*
X800883Y1046636D01*
X800756Y1046665D01*
X800627Y1046691D01*
X800498Y1046712D01*
X800368Y1046730D01*
X800238Y1046743D01*
X800108Y1046753D01*
X799977Y1046759D01*
X799846Y1046761D01*
X803007Y1045406D02*
X812038Y1037730D01*
X812038Y1046761D01*
X803910Y1053361D02*
X803590Y1053365D01*
X803271Y1053376D01*
X802951Y1053395D01*
X802633Y1053422D01*
X802315Y1053456D01*
X801998Y1053498D01*
X801682Y1053548D01*
X801367Y1053605D01*
X801054Y1053669D01*
X800742Y1053741D01*
X800432Y1053820D01*
X800125Y1053907D01*
X799819Y1054001D01*
X799516Y1054102D01*
X799215Y1054211D01*
X798917Y1054326D01*
X798621Y1054449D01*
X798329Y1054579D01*
X798040Y1054716D01*
X798039Y1054716D02*
X797931Y1054755D01*
X797824Y1054798D01*
X797719Y1054844D01*
X797616Y1054894D01*
X797514Y1054948D01*
X797414Y1055005D01*
X797316Y1055066D01*
X797220Y1055130D01*
X797127Y1055197D01*
X797036Y1055267D01*
X796947Y1055341D01*
X796861Y1055417D01*
X796778Y1055497D01*
X796697Y1055579D01*
X796619Y1055664D01*
X796545Y1055751D01*
X796473Y1055842D01*
X796404Y1055934D01*
X796339Y1056029D01*
X796277Y1056126D01*
X796218Y1056225D01*
X796163Y1056326D01*
X796112Y1056429D01*
X796064Y1056534D01*
X796019Y1056640D01*
X795978Y1056747D01*
X795941Y1056856D01*
X795908Y1056967D01*
X795879Y1057078D01*
X795853Y1057190D01*
X795831Y1057303D01*
X795814Y1057417D01*
X795800Y1057531D01*
X795790Y1057646D01*
X795784Y1057761D01*
X795782Y1057876D01*
X795784Y1057991D01*
X795790Y1058106D01*
X795800Y1058221D01*
X795814Y1058335D01*
X795831Y1058449D01*
X795853Y1058562D01*
X795879Y1058674D01*
X795908Y1058786D01*
X795941Y1058896D01*
X795978Y1059005D01*
X796019Y1059113D01*
X796064Y1059219D01*
X796112Y1059324D01*
X796163Y1059426D01*
X796219Y1059528D01*
X796277Y1059627D01*
X796339Y1059724D01*
X796405Y1059819D01*
X796473Y1059911D01*
X796545Y1060001D01*
X796619Y1060089D01*
X796697Y1060174D01*
X796778Y1060256D01*
X796861Y1060335D01*
X796947Y1060412D01*
X797036Y1060485D01*
X797127Y1060556D01*
X797221Y1060623D01*
X797316Y1060687D01*
X797414Y1060748D01*
X797514Y1060805D01*
X797616Y1060858D01*
X797720Y1060909D01*
X797825Y1060955D01*
X797932Y1060998D01*
X798040Y1061037D01*
X798329Y1061174D01*
X798621Y1061304D01*
X798917Y1061427D01*
X799215Y1061542D01*
X799516Y1061651D01*
X799819Y1061752D01*
X800125Y1061846D01*
X800432Y1061933D01*
X800742Y1062012D01*
X801054Y1062084D01*
X801367Y1062148D01*
X801682Y1062205D01*
X801998Y1062255D01*
X802315Y1062297D01*
X802633Y1062331D01*
X802951Y1062358D01*
X803271Y1062377D01*
X803590Y1062388D01*
X803910Y1062392D01*
X803910Y1053361D02*
X804230Y1053365D01*
X804549Y1053376D01*
X804869Y1053395D01*
X805187Y1053422D01*
X805505Y1053456D01*
X805822Y1053498D01*
X806138Y1053548D01*
X806453Y1053605D01*
X806766Y1053669D01*
X807078Y1053741D01*
X807388Y1053820D01*
X807695Y1053907D01*
X808001Y1054001D01*
X808304Y1054102D01*
X808605Y1054211D01*
X808903Y1054326D01*
X809199Y1054449D01*
X809491Y1054579D01*
X809780Y1054716D01*
X809781Y1054715D02*
X809889Y1054754D01*
X809996Y1054797D01*
X810101Y1054843D01*
X810205Y1054894D01*
X810307Y1054947D01*
X810407Y1055004D01*
X810505Y1055065D01*
X810600Y1055129D01*
X810694Y1055196D01*
X810785Y1055267D01*
X810874Y1055340D01*
X810960Y1055417D01*
X811043Y1055496D01*
X811124Y1055578D01*
X811202Y1055663D01*
X811276Y1055751D01*
X811348Y1055841D01*
X811417Y1055934D01*
X811482Y1056028D01*
X811544Y1056125D01*
X811602Y1056225D01*
X811658Y1056326D01*
X811709Y1056428D01*
X811757Y1056533D01*
X811802Y1056639D01*
X811843Y1056747D01*
X811880Y1056856D01*
X811913Y1056966D01*
X811942Y1057078D01*
X811968Y1057190D01*
X811990Y1057303D01*
X812007Y1057417D01*
X812021Y1057531D01*
X812031Y1057646D01*
X812037Y1057761D01*
X812039Y1057876D01*
X809780Y1061037D02*
X809491Y1061174D01*
X809199Y1061304D01*
X808903Y1061427D01*
X808605Y1061542D01*
X808304Y1061651D01*
X808001Y1061752D01*
X807695Y1061846D01*
X807388Y1061933D01*
X807078Y1062012D01*
X806766Y1062084D01*
X806453Y1062148D01*
X806138Y1062205D01*
X805822Y1062255D01*
X805505Y1062297D01*
X805187Y1062331D01*
X804869Y1062358D01*
X804549Y1062377D01*
X804230Y1062388D01*
X803910Y1062392D01*
X809780Y1061037D02*
X809888Y1060998D01*
X809995Y1060955D01*
X810100Y1060909D01*
X810204Y1060858D01*
X810306Y1060805D01*
X810406Y1060748D01*
X810504Y1060687D01*
X810599Y1060623D01*
X810693Y1060556D01*
X810784Y1060485D01*
X810873Y1060412D01*
X810959Y1060335D01*
X811042Y1060256D01*
X811123Y1060174D01*
X811201Y1060089D01*
X811275Y1060001D01*
X811347Y1059911D01*
X811416Y1059818D01*
X811481Y1059724D01*
X811543Y1059627D01*
X811601Y1059527D01*
X811657Y1059426D01*
X811708Y1059323D01*
X811756Y1059219D01*
X811801Y1059113D01*
X811842Y1059005D01*
X811879Y1058896D01*
X811912Y1058786D01*
X811941Y1058674D01*
X811967Y1058562D01*
X811989Y1058449D01*
X812006Y1058335D01*
X812020Y1058221D01*
X812030Y1058106D01*
X812036Y1057991D01*
X812038Y1057876D01*
X808426Y1054264D02*
X799394Y1061489D01*
X799394Y1068992D02*
X795782Y1073508D01*
X812038Y1073508D01*
X812038Y1078023D02*
X812038Y1068992D01*
X804813Y1088236D02*
X804813Y1093654D01*
X804813Y1088236D02*
X804811Y1088118D01*
X804805Y1088000D01*
X804796Y1087882D01*
X804782Y1087765D01*
X804765Y1087648D01*
X804744Y1087531D01*
X804719Y1087416D01*
X804690Y1087301D01*
X804657Y1087187D01*
X804621Y1087075D01*
X804581Y1086964D01*
X804538Y1086854D01*
X804491Y1086745D01*
X804441Y1086638D01*
X804386Y1086533D01*
X804329Y1086430D01*
X804268Y1086329D01*
X804204Y1086229D01*
X804137Y1086132D01*
X804067Y1086037D01*
X803993Y1085945D01*
X803917Y1085854D01*
X803837Y1085767D01*
X803755Y1085682D01*
X803670Y1085600D01*
X803583Y1085520D01*
X803492Y1085444D01*
X803400Y1085370D01*
X803305Y1085300D01*
X803208Y1085233D01*
X803108Y1085169D01*
X803007Y1085108D01*
X802904Y1085051D01*
X802799Y1084996D01*
X802692Y1084946D01*
X802583Y1084899D01*
X802473Y1084856D01*
X802362Y1084816D01*
X802250Y1084780D01*
X802136Y1084747D01*
X802021Y1084718D01*
X801906Y1084693D01*
X801789Y1084672D01*
X801672Y1084655D01*
X801555Y1084641D01*
X801437Y1084632D01*
X801319Y1084626D01*
X801201Y1084624D01*
X801201Y1084623D02*
X800298Y1084623D01*
X800165Y1084625D01*
X800033Y1084631D01*
X799901Y1084641D01*
X799769Y1084654D01*
X799637Y1084672D01*
X799507Y1084693D01*
X799376Y1084718D01*
X799247Y1084747D01*
X799119Y1084780D01*
X798991Y1084816D01*
X798865Y1084856D01*
X798740Y1084900D01*
X798616Y1084948D01*
X798494Y1084999D01*
X798373Y1085054D01*
X798254Y1085112D01*
X798136Y1085174D01*
X798021Y1085239D01*
X797907Y1085308D01*
X797796Y1085379D01*
X797687Y1085455D01*
X797580Y1085533D01*
X797475Y1085614D01*
X797373Y1085699D01*
X797273Y1085786D01*
X797176Y1085876D01*
X797081Y1085969D01*
X796990Y1086065D01*
X796901Y1086163D01*
X796815Y1086264D01*
X796732Y1086368D01*
X796652Y1086474D01*
X796576Y1086582D01*
X796502Y1086692D01*
X796432Y1086805D01*
X796365Y1086919D01*
X796302Y1087036D01*
X796242Y1087154D01*
X796185Y1087274D01*
X796132Y1087396D01*
X796083Y1087519D01*
X796037Y1087643D01*
X795995Y1087769D01*
X795957Y1087896D01*
X795922Y1088024D01*
X795891Y1088153D01*
X795864Y1088282D01*
X795841Y1088413D01*
X795821Y1088544D01*
X795806Y1088676D01*
X795794Y1088808D01*
X795786Y1088940D01*
X795782Y1089073D01*
X795782Y1089205D01*
X795786Y1089338D01*
X795794Y1089470D01*
X795806Y1089602D01*
X795821Y1089734D01*
X795841Y1089865D01*
X795864Y1089996D01*
X795891Y1090125D01*
X795922Y1090254D01*
X795957Y1090382D01*
X795995Y1090509D01*
X796037Y1090635D01*
X796083Y1090759D01*
X796132Y1090882D01*
X796185Y1091004D01*
X796242Y1091124D01*
X796302Y1091242D01*
X796365Y1091359D01*
X796432Y1091473D01*
X796502Y1091586D01*
X796576Y1091696D01*
X796652Y1091804D01*
X796732Y1091910D01*
X796815Y1092014D01*
X796901Y1092115D01*
X796990Y1092213D01*
X797081Y1092309D01*
X797176Y1092402D01*
X797273Y1092492D01*
X797373Y1092579D01*
X797475Y1092664D01*
X797580Y1092745D01*
X797687Y1092823D01*
X797796Y1092899D01*
X797907Y1092970D01*
X798021Y1093039D01*
X798136Y1093104D01*
X798254Y1093166D01*
X798373Y1093224D01*
X798494Y1093279D01*
X798616Y1093330D01*
X798740Y1093378D01*
X798865Y1093422D01*
X798991Y1093462D01*
X799119Y1093498D01*
X799247Y1093531D01*
X799376Y1093560D01*
X799507Y1093585D01*
X799637Y1093606D01*
X799769Y1093624D01*
X799901Y1093637D01*
X800033Y1093647D01*
X800165Y1093653D01*
X800298Y1093655D01*
X800298Y1093654D02*
X804813Y1093654D01*
X804988Y1093652D01*
X805162Y1093646D01*
X805336Y1093635D01*
X805510Y1093620D01*
X805684Y1093601D01*
X805857Y1093578D01*
X806029Y1093551D01*
X806201Y1093519D01*
X806372Y1093484D01*
X806542Y1093444D01*
X806711Y1093400D01*
X806879Y1093352D01*
X807046Y1093300D01*
X807211Y1093244D01*
X807375Y1093184D01*
X807538Y1093121D01*
X807698Y1093053D01*
X807858Y1092981D01*
X808015Y1092906D01*
X808171Y1092826D01*
X808324Y1092743D01*
X808476Y1092657D01*
X808625Y1092566D01*
X808772Y1092472D01*
X808917Y1092375D01*
X809060Y1092274D01*
X809200Y1092170D01*
X809337Y1092062D01*
X809472Y1091951D01*
X809604Y1091837D01*
X809733Y1091720D01*
X809860Y1091599D01*
X809983Y1091476D01*
X810104Y1091349D01*
X810221Y1091220D01*
X810335Y1091088D01*
X810446Y1090953D01*
X810554Y1090816D01*
X810658Y1090676D01*
X810759Y1090533D01*
X810856Y1090388D01*
X810950Y1090241D01*
X811041Y1090092D01*
X811127Y1089940D01*
X811210Y1089787D01*
X811290Y1089631D01*
X811365Y1089474D01*
X811437Y1089314D01*
X811505Y1089154D01*
X811568Y1088991D01*
X811628Y1088827D01*
X811684Y1088662D01*
X811736Y1088495D01*
X811784Y1088327D01*
X811828Y1088158D01*
X811868Y1087988D01*
X811903Y1087817D01*
X811935Y1087645D01*
X811962Y1087473D01*
X811985Y1087300D01*
X812004Y1087126D01*
X812019Y1086952D01*
X812030Y1086778D01*
X812036Y1086604D01*
X812038Y1086429D01*
X851662Y108684D02*
X862499Y108684D01*
X857081Y103265D02*
X857081Y114102D01*
X824399Y108684D02*
X813562Y108684D01*
X759093Y606693D02*
X756384Y606693D01*
X759093Y606693D02*
X759093Y597662D01*
X753674Y597662D01*
X753556Y597664D01*
X753438Y597670D01*
X753320Y597679D01*
X753203Y597693D01*
X753086Y597710D01*
X752969Y597731D01*
X752854Y597756D01*
X752739Y597785D01*
X752625Y597818D01*
X752513Y597854D01*
X752402Y597894D01*
X752292Y597937D01*
X752183Y597984D01*
X752076Y598034D01*
X751971Y598089D01*
X751868Y598146D01*
X751767Y598207D01*
X751667Y598271D01*
X751570Y598338D01*
X751475Y598408D01*
X751383Y598482D01*
X751292Y598558D01*
X751205Y598638D01*
X751120Y598720D01*
X751038Y598805D01*
X750958Y598892D01*
X750882Y598983D01*
X750808Y599075D01*
X750738Y599170D01*
X750671Y599267D01*
X750607Y599367D01*
X750546Y599468D01*
X750489Y599571D01*
X750434Y599676D01*
X750384Y599783D01*
X750337Y599892D01*
X750294Y600002D01*
X750254Y600113D01*
X750218Y600225D01*
X750185Y600339D01*
X750156Y600454D01*
X750131Y600569D01*
X750110Y600686D01*
X750093Y600803D01*
X750079Y600920D01*
X750070Y601038D01*
X750064Y601156D01*
X750062Y601274D01*
X750062Y610306D01*
X750064Y610424D01*
X750070Y610542D01*
X750079Y610660D01*
X750093Y610777D01*
X750110Y610894D01*
X750131Y611011D01*
X750156Y611126D01*
X750185Y611241D01*
X750218Y611355D01*
X750254Y611467D01*
X750294Y611578D01*
X750337Y611688D01*
X750384Y611797D01*
X750434Y611904D01*
X750488Y612009D01*
X750546Y612112D01*
X750607Y612213D01*
X750671Y612313D01*
X750738Y612410D01*
X750808Y612505D01*
X750882Y612597D01*
X750958Y612688D01*
X751038Y612775D01*
X751120Y612860D01*
X751205Y612942D01*
X751292Y613022D01*
X751383Y613098D01*
X751475Y613172D01*
X751570Y613242D01*
X751667Y613309D01*
X751767Y613373D01*
X751868Y613434D01*
X751971Y613491D01*
X752076Y613545D01*
X752183Y613596D01*
X752292Y613643D01*
X752402Y613686D01*
X752513Y613726D01*
X752625Y613762D01*
X752739Y613795D01*
X752854Y613824D01*
X752969Y613849D01*
X753086Y613870D01*
X753203Y613887D01*
X753320Y613901D01*
X753438Y613910D01*
X753556Y613916D01*
X753674Y613918D01*
X759093Y613918D01*
X766735Y613918D02*
X766735Y597662D01*
X775766Y597662D02*
X766735Y613918D01*
X775766Y613918D02*
X775766Y597662D01*
X783409Y597662D02*
X783409Y613918D01*
X787924Y613918D01*
X788055Y613916D01*
X788187Y613910D01*
X788318Y613901D01*
X788448Y613887D01*
X788579Y613870D01*
X788708Y613849D01*
X788837Y613825D01*
X788965Y613796D01*
X789093Y613764D01*
X789219Y613728D01*
X789344Y613689D01*
X789469Y613646D01*
X789591Y613599D01*
X789713Y613549D01*
X789833Y613495D01*
X789951Y613438D01*
X790067Y613377D01*
X790182Y613313D01*
X790295Y613246D01*
X790406Y613175D01*
X790514Y613101D01*
X790621Y613024D01*
X790725Y612944D01*
X790827Y612861D01*
X790926Y612776D01*
X791023Y612687D01*
X791117Y612595D01*
X791209Y612501D01*
X791298Y612404D01*
X791383Y612305D01*
X791466Y612203D01*
X791546Y612099D01*
X791623Y611992D01*
X791697Y611884D01*
X791768Y611773D01*
X791835Y611660D01*
X791899Y611545D01*
X791960Y611429D01*
X792017Y611311D01*
X792071Y611191D01*
X792121Y611069D01*
X792168Y610947D01*
X792211Y610822D01*
X792250Y610697D01*
X792286Y610571D01*
X792318Y610443D01*
X792347Y610315D01*
X792371Y610186D01*
X792392Y610057D01*
X792409Y609926D01*
X792423Y609796D01*
X792432Y609665D01*
X792438Y609533D01*
X792440Y609402D01*
X792440Y602178D01*
X792438Y602047D01*
X792432Y601915D01*
X792423Y601784D01*
X792409Y601654D01*
X792392Y601523D01*
X792371Y601394D01*
X792347Y601265D01*
X792318Y601137D01*
X792286Y601009D01*
X792250Y600883D01*
X792211Y600758D01*
X792168Y600633D01*
X792121Y600511D01*
X792071Y600389D01*
X792017Y600269D01*
X791960Y600151D01*
X791899Y600035D01*
X791835Y599920D01*
X791768Y599807D01*
X791697Y599696D01*
X791623Y599588D01*
X791546Y599481D01*
X791466Y599377D01*
X791383Y599275D01*
X791298Y599176D01*
X791209Y599079D01*
X791117Y598985D01*
X791023Y598893D01*
X790926Y598804D01*
X790827Y598719D01*
X790725Y598636D01*
X790621Y598556D01*
X790514Y598479D01*
X790406Y598405D01*
X790295Y598334D01*
X790182Y598267D01*
X790067Y598203D01*
X789951Y598142D01*
X789833Y598085D01*
X789713Y598031D01*
X789591Y597981D01*
X789469Y597934D01*
X789344Y597891D01*
X789219Y597852D01*
X789093Y597816D01*
X788965Y597784D01*
X788837Y597755D01*
X788708Y597731D01*
X788578Y597710D01*
X788448Y597693D01*
X788318Y597679D01*
X788187Y597670D01*
X788055Y597664D01*
X787924Y597662D01*
X783409Y597662D01*
D11*
X818896Y812800D02*
X832104Y812800D01*
X832104Y787400D02*
X818896Y787400D01*
X818896Y660400D02*
X832104Y660400D01*
X832104Y635000D02*
X818896Y635000D01*
X818896Y762000D02*
X832104Y762000D01*
X832104Y736600D02*
X818896Y736600D01*
X818896Y685800D02*
X832104Y685800D01*
X832104Y711200D02*
X818896Y711200D01*
X818896Y609600D02*
X832104Y609600D01*
X895096Y609600D02*
X908304Y609600D01*
X908304Y635000D02*
X895096Y635000D01*
X895096Y660400D02*
X908304Y660400D01*
X908304Y685800D02*
X895096Y685800D01*
X895096Y711200D02*
X908304Y711200D01*
X908304Y736600D02*
X895096Y736600D01*
X895096Y762000D02*
X908304Y762000D01*
X908304Y787400D02*
X895096Y787400D01*
X895096Y812800D02*
X908304Y812800D01*
D12*
X762000Y635000D03*
X762000Y660400D03*
X762000Y685800D03*
X762000Y711200D03*
X762000Y736600D03*
X762000Y762000D03*
X762000Y787400D03*
X762000Y812800D03*
D13*
X850900Y160020D02*
X850900Y144780D01*
X825500Y144780D02*
X825500Y160020D01*
D14*
X1101344Y1168400D02*
X1121156Y1168400D01*
X1121664Y1108710D02*
X1141476Y1108710D01*
X1141476Y1228090D02*
X1121664Y1228090D01*
X1243584Y1228090D02*
X1263396Y1228090D01*
X1263396Y1108710D02*
X1243584Y1108710D01*
X1121156Y990600D02*
X1101344Y990600D01*
X1121664Y930910D02*
X1141476Y930910D01*
X1141476Y1050290D02*
X1121664Y1050290D01*
X1243584Y1050290D02*
X1263396Y1050290D01*
X1263396Y930910D02*
X1243584Y930910D01*
X1121156Y812800D02*
X1101344Y812800D01*
X1121664Y753110D02*
X1141476Y753110D01*
X1141476Y872490D02*
X1121664Y872490D01*
X1243584Y872490D02*
X1263396Y872490D01*
X1263396Y753110D02*
X1243584Y753110D01*
X1121156Y635000D02*
X1101344Y635000D01*
X1121664Y575310D02*
X1141476Y575310D01*
X1141476Y694690D02*
X1121664Y694690D01*
X1243584Y694690D02*
X1263396Y694690D01*
X1263396Y575310D02*
X1243584Y575310D01*
X1121156Y457200D02*
X1101344Y457200D01*
X1121664Y397510D02*
X1141476Y397510D01*
X1141476Y516890D02*
X1121664Y516890D01*
X1243584Y516890D02*
X1263396Y516890D01*
X1263396Y397510D02*
X1243584Y397510D01*
X1121156Y279400D02*
X1101344Y279400D01*
X1121664Y219710D02*
X1141476Y219710D01*
X1141476Y339090D02*
X1121664Y339090D01*
X1243584Y339090D02*
X1263396Y339090D01*
X1263396Y219710D02*
X1243584Y219710D01*
D15*
X1041400Y1155700D03*
X1041400Y1181100D03*
X1041400Y977900D03*
X1041400Y1003300D03*
X1041400Y800100D03*
X1041400Y825500D03*
X1041400Y622300D03*
X1041400Y647700D03*
X1041400Y444500D03*
X1041400Y469900D03*
X1041400Y266700D03*
X1041400Y292100D03*
D16*
X977900Y1179400D02*
X977900Y1213400D01*
X977900Y1158400D02*
X977900Y1117400D01*
D17*
X977900Y1219200D03*
X977900Y1117600D03*
D18*
X977900Y1178654D03*
X977900Y1158146D03*
D16*
X977900Y1035600D02*
X977900Y1001600D01*
X977900Y980600D02*
X977900Y939600D01*
D17*
X977900Y1041400D03*
X977900Y939800D03*
D18*
X977900Y1000854D03*
X977900Y980346D03*
D16*
X977900Y857800D02*
X977900Y823800D01*
X977900Y802800D02*
X977900Y761800D01*
D17*
X977900Y863600D03*
X977900Y762000D03*
D18*
X977900Y823054D03*
X977900Y802546D03*
D16*
X977900Y680000D02*
X977900Y646000D01*
X977900Y625000D02*
X977900Y584000D01*
D17*
X977900Y685800D03*
X977900Y584200D03*
D18*
X977900Y645254D03*
X977900Y624746D03*
D16*
X977900Y502200D02*
X977900Y468200D01*
X977900Y447200D02*
X977900Y406200D01*
D17*
X977900Y508000D03*
X977900Y406400D03*
D18*
X977900Y467454D03*
X977900Y446946D03*
D16*
X977900Y324400D02*
X977900Y290400D01*
X977900Y269400D02*
X977900Y228400D01*
D17*
X977900Y330200D03*
X977900Y228600D03*
D18*
X977900Y289654D03*
X977900Y269146D03*
D19*
X1419797Y546100D02*
X1437704Y546100D01*
X1437704Y596900D02*
X1419797Y596900D01*
X1419797Y647700D02*
X1437704Y647700D01*
X1437704Y698500D02*
X1419797Y698500D01*
X1419797Y749300D02*
X1437704Y749300D01*
X1437704Y800100D02*
X1419797Y800100D01*
X1419797Y850900D02*
X1437704Y850900D01*
X1437704Y901700D02*
X1419797Y901700D01*
X1155700Y142304D02*
X1155700Y124397D01*
X1206500Y124397D02*
X1206500Y142304D01*
D20*
X1428750Y933450D02*
X1253490Y1108710D01*
X1428750Y933450D02*
X1428750Y901700D01*
X1333500Y850900D02*
X1253490Y930910D01*
X1333500Y850900D02*
X1428750Y850900D01*
X1381760Y753110D02*
X1253490Y753110D01*
X1381760Y753110D02*
X1428750Y800100D01*
X1428750Y749300D02*
X1254760Y575310D01*
D21*
X1253490Y575310D01*
D20*
X1253490Y461109D02*
X1253490Y397510D01*
X1303274Y573024D02*
X1428750Y698500D01*
X1303274Y510893D02*
X1253490Y461109D01*
X1303274Y510893D02*
X1303274Y573024D01*
X1346200Y312420D02*
X1253490Y219710D01*
X1346200Y312420D02*
X1346200Y571500D01*
X1422400Y647700D01*
D21*
X1428750Y647700D01*
D20*
X1111250Y279400D02*
X1094486Y262636D01*
X1094486Y194564D01*
X1155700Y133350D01*
X1094486Y296164D02*
X1094486Y440436D01*
X1094486Y296164D02*
X1111250Y279400D01*
X1094486Y440436D02*
X1111250Y457200D01*
X1094486Y473964D02*
X1094486Y618236D01*
X1094486Y473964D02*
X1111250Y457200D01*
X1094486Y618236D02*
X1111250Y635000D01*
X1094486Y651764D02*
X1094486Y796036D01*
X1094486Y651764D02*
X1111250Y635000D01*
X1094486Y796036D02*
X1111250Y812800D01*
X1094486Y829564D01*
X1094486Y973836D01*
X1111250Y990600D01*
X1094486Y1007364D01*
X1094486Y1151636D01*
X1111250Y1168400D01*
X1428750Y355600D02*
X1206500Y133350D01*
X1428750Y355600D02*
X1428750Y546100D01*
D16*
X939800Y1079500D02*
X977900Y1117600D01*
X939800Y1079500D02*
X939800Y838200D01*
X914400Y812800D01*
X901700Y812800D01*
X901700Y762000D02*
X977900Y762000D01*
X952500Y609600D02*
X977900Y584200D01*
X952500Y609600D02*
X952500Y698500D01*
X914400Y736600D01*
X901700Y736600D01*
X939800Y444500D02*
X977900Y406400D01*
X939800Y444500D02*
X939800Y685800D01*
X914400Y711200D01*
X901700Y711200D01*
X927100Y279400D02*
X977900Y228600D01*
X927100Y279400D02*
X927100Y673100D01*
X914400Y685800D01*
X901700Y685800D01*
X927100Y152400D02*
X850900Y152400D01*
X927100Y152400D02*
X1041400Y266700D01*
X1066800Y1130300D02*
X1041400Y1155700D01*
X1066800Y1130300D02*
X1066800Y1079500D01*
D22*
X1066800Y1079500D03*
D16*
X1041400Y977900D02*
X1066800Y952500D01*
X1066800Y901700D01*
D22*
X1066800Y901700D03*
D16*
X1041400Y800100D02*
X1066800Y774700D01*
X1066800Y723900D01*
D22*
X1066800Y723900D03*
D16*
X1041400Y622300D02*
X1066800Y596900D01*
X1066800Y546100D01*
D22*
X1066800Y546100D03*
D16*
X1041400Y444500D02*
X1066800Y419100D01*
X1066800Y368300D01*
D22*
X1066800Y368300D03*
D16*
X825500Y812800D02*
X762000Y812800D01*
X762000Y787400D02*
X825500Y787400D01*
X825500Y762000D02*
X762000Y762000D01*
X762000Y736600D02*
X825500Y736600D01*
X825500Y711200D02*
X762000Y711200D01*
X762000Y685800D02*
X825500Y685800D01*
X952500Y914400D02*
X977900Y939800D01*
X952500Y914400D02*
X952500Y825500D01*
X914400Y787400D01*
X901700Y787400D01*
X800100Y635000D02*
X762000Y635000D01*
X800100Y635000D02*
X825500Y609600D01*
X825500Y152400D01*
X977900Y330200D02*
X1003300Y330200D01*
X1041400Y292100D01*
X1003300Y508000D02*
X977900Y508000D01*
X1003300Y508000D02*
X1041400Y469900D01*
X1003300Y685800D02*
X977900Y685800D01*
X1003300Y685800D02*
X1041400Y647700D01*
X1003300Y863600D02*
X977900Y863600D01*
X1003300Y863600D02*
X1041400Y825500D01*
X1003300Y1041400D02*
X977900Y1041400D01*
X1003300Y1041400D02*
X1041400Y1003300D01*
X1003300Y1219200D02*
X977900Y1219200D01*
X1003300Y1219200D02*
X1041400Y1181100D01*
M02*
