M48
;GenerationSoftware,Autodesk,EAGLE,9.5.0*%
;CreationDate,2019-09-11T17:16:04Z*%
FMAT,2
ICI,OFF
METRIC,TZ,000.000
T6C0.350
T5C0.813
T4C1.016
T3C1.194
T2C1.321
T1C5.080
%
G90
M71
T1
X143510Y123190
X76200Y12700
X76200Y123190
X143510Y12700
T2
X125349Y69469
X113157Y69469
X113157Y57531
X111125Y63500
X125349Y87249
X113157Y21971
X113157Y33909
X125349Y33909
X125349Y21971
X111125Y116840
X113157Y110871
X113157Y122809
X125349Y122809
X125349Y110871
X111125Y99060
X113157Y93091
X113157Y105029
X125349Y105029
X125349Y93091
X111125Y81280
X125349Y75311
X113157Y75311
X113157Y87249
X125349Y57531
X111125Y45720
X113157Y39751
X113157Y51689
X125349Y51689
X125349Y39751
X111125Y27940
T3
X120650Y13335
X142875Y54610
X142875Y59690
X142875Y64770
X142875Y69850
X142875Y74930
X142875Y80010
X142875Y85090
X142875Y90170
X115570Y13335
T4
X76200Y81280
X85090Y15240
X82550Y15240
X76200Y78740
X76200Y76200
X76200Y63500
X76200Y66040
X76200Y68580
X76200Y71120
X76200Y73660
T5
X82550Y66040
X82550Y76200
X82550Y73660
X82550Y68580
X82550Y71120
X82550Y60960
X90170Y60960
X90170Y63500
X104140Y115570
X104140Y118110
X104140Y97790
X104140Y100330
X104140Y80010
X104140Y82550
X104140Y62230
X104140Y64770
X104140Y44450
X90170Y66040
X104140Y26670
X104140Y29210
X97790Y121920
X97790Y111760
X97790Y104140
X97790Y93980
X97790Y86360
X97790Y76200
X97790Y68580
X97790Y58420
X97790Y50800
X104140Y46990
X97790Y33020
X97790Y22860
X90170Y68580
X90170Y71120
X90170Y73660
X90170Y78740
X90170Y81280
X90170Y76200
X82550Y63500
X82550Y81280
X82550Y78740
X97790Y40640
T6
X106680Y107950
X106680Y36830
X106680Y54610
X106680Y72390
X106680Y90170
M30