G04 EAGLE Gerber RS-274X export*
G75*
%MOMM*%
%FSLAX34Y34*%
%LPD*%
%IN*%
%IPPOS*%
%AMOC8*
5,1,8,0,0,1.08239X$1,22.5*%
G01*
%ADD10C,0.254000*%


D10*
X723900Y88900D02*
X1473000Y88900D01*
X1473000Y1266700D01*
X723900Y1266700D01*
X723900Y88900D01*
X787400Y1231187D02*
X787320Y1229764D01*
X787161Y1228348D01*
X786922Y1226943D01*
X786605Y1225553D01*
X786210Y1224184D01*
X785739Y1222838D01*
X785194Y1221521D01*
X784575Y1220237D01*
X783886Y1218990D01*
X783128Y1217783D01*
X782303Y1216621D01*
X781414Y1215506D01*
X780464Y1214443D01*
X779457Y1213436D01*
X778394Y1212486D01*
X777279Y1211597D01*
X776117Y1210772D01*
X774910Y1210014D01*
X773663Y1209325D01*
X772379Y1208706D01*
X771062Y1208161D01*
X769716Y1207690D01*
X768347Y1207295D01*
X766957Y1206978D01*
X765552Y1206740D01*
X764136Y1206580D01*
X762713Y1206500D01*
X761287Y1206500D01*
X759864Y1206580D01*
X758448Y1206740D01*
X757043Y1206978D01*
X755653Y1207295D01*
X754284Y1207690D01*
X752938Y1208161D01*
X751621Y1208706D01*
X750337Y1209325D01*
X749090Y1210014D01*
X747883Y1210772D01*
X746721Y1211597D01*
X745606Y1212486D01*
X744543Y1213436D01*
X743536Y1214443D01*
X742586Y1215506D01*
X741697Y1216621D01*
X740872Y1217783D01*
X740114Y1218990D01*
X739425Y1220237D01*
X738806Y1221521D01*
X738261Y1222838D01*
X737790Y1224184D01*
X737395Y1225553D01*
X737078Y1226943D01*
X736840Y1228348D01*
X736680Y1229764D01*
X736600Y1231187D01*
X736600Y1232613D01*
X736680Y1234036D01*
X736840Y1235452D01*
X737078Y1236857D01*
X737395Y1238247D01*
X737790Y1239616D01*
X738261Y1240962D01*
X738806Y1242279D01*
X739425Y1243563D01*
X740114Y1244810D01*
X740872Y1246017D01*
X741697Y1247179D01*
X742586Y1248294D01*
X743536Y1249357D01*
X744543Y1250364D01*
X745606Y1251314D01*
X746721Y1252203D01*
X747883Y1253028D01*
X749090Y1253786D01*
X750337Y1254475D01*
X751621Y1255094D01*
X752938Y1255639D01*
X754284Y1256110D01*
X755653Y1256505D01*
X757043Y1256822D01*
X758448Y1257061D01*
X759864Y1257220D01*
X761287Y1257300D01*
X762713Y1257300D01*
X764136Y1257220D01*
X765552Y1257061D01*
X766957Y1256822D01*
X768347Y1256505D01*
X769716Y1256110D01*
X771062Y1255639D01*
X772379Y1255094D01*
X773663Y1254475D01*
X774910Y1253786D01*
X776117Y1253028D01*
X777279Y1252203D01*
X778394Y1251314D01*
X779457Y1250364D01*
X780464Y1249357D01*
X781414Y1248294D01*
X782303Y1247179D01*
X783128Y1246017D01*
X783886Y1244810D01*
X784575Y1243563D01*
X785194Y1242279D01*
X785739Y1240962D01*
X786210Y1239616D01*
X786605Y1238247D01*
X786922Y1236857D01*
X787161Y1235452D01*
X787320Y1234036D01*
X787400Y1232613D01*
X787400Y1231187D01*
X1460500Y1231187D02*
X1460420Y1229764D01*
X1460261Y1228348D01*
X1460022Y1226943D01*
X1459705Y1225553D01*
X1459310Y1224184D01*
X1458839Y1222838D01*
X1458294Y1221521D01*
X1457675Y1220237D01*
X1456986Y1218990D01*
X1456228Y1217783D01*
X1455403Y1216621D01*
X1454514Y1215506D01*
X1453564Y1214443D01*
X1452557Y1213436D01*
X1451494Y1212486D01*
X1450379Y1211597D01*
X1449217Y1210772D01*
X1448010Y1210014D01*
X1446763Y1209325D01*
X1445479Y1208706D01*
X1444162Y1208161D01*
X1442816Y1207690D01*
X1441447Y1207295D01*
X1440057Y1206978D01*
X1438652Y1206740D01*
X1437236Y1206580D01*
X1435813Y1206500D01*
X1434387Y1206500D01*
X1432964Y1206580D01*
X1431548Y1206740D01*
X1430143Y1206978D01*
X1428753Y1207295D01*
X1427384Y1207690D01*
X1426038Y1208161D01*
X1424721Y1208706D01*
X1423437Y1209325D01*
X1422190Y1210014D01*
X1420983Y1210772D01*
X1419821Y1211597D01*
X1418706Y1212486D01*
X1417643Y1213436D01*
X1416636Y1214443D01*
X1415686Y1215506D01*
X1414797Y1216621D01*
X1413972Y1217783D01*
X1413214Y1218990D01*
X1412525Y1220237D01*
X1411906Y1221521D01*
X1411361Y1222838D01*
X1410890Y1224184D01*
X1410495Y1225553D01*
X1410178Y1226943D01*
X1409940Y1228348D01*
X1409780Y1229764D01*
X1409700Y1231187D01*
X1409700Y1232613D01*
X1409780Y1234036D01*
X1409940Y1235452D01*
X1410178Y1236857D01*
X1410495Y1238247D01*
X1410890Y1239616D01*
X1411361Y1240962D01*
X1411906Y1242279D01*
X1412525Y1243563D01*
X1413214Y1244810D01*
X1413972Y1246017D01*
X1414797Y1247179D01*
X1415686Y1248294D01*
X1416636Y1249357D01*
X1417643Y1250364D01*
X1418706Y1251314D01*
X1419821Y1252203D01*
X1420983Y1253028D01*
X1422190Y1253786D01*
X1423437Y1254475D01*
X1424721Y1255094D01*
X1426038Y1255639D01*
X1427384Y1256110D01*
X1428753Y1256505D01*
X1430143Y1256822D01*
X1431548Y1257061D01*
X1432964Y1257220D01*
X1434387Y1257300D01*
X1435813Y1257300D01*
X1437236Y1257220D01*
X1438652Y1257061D01*
X1440057Y1256822D01*
X1441447Y1256505D01*
X1442816Y1256110D01*
X1444162Y1255639D01*
X1445479Y1255094D01*
X1446763Y1254475D01*
X1448010Y1253786D01*
X1449217Y1253028D01*
X1450379Y1252203D01*
X1451494Y1251314D01*
X1452557Y1250364D01*
X1453564Y1249357D01*
X1454514Y1248294D01*
X1455403Y1247179D01*
X1456228Y1246017D01*
X1456986Y1244810D01*
X1457675Y1243563D01*
X1458294Y1242279D01*
X1458839Y1240962D01*
X1459310Y1239616D01*
X1459705Y1238247D01*
X1460022Y1236857D01*
X1460261Y1235452D01*
X1460420Y1234036D01*
X1460500Y1232613D01*
X1460500Y1231187D01*
X787400Y126287D02*
X787320Y124864D01*
X787161Y123448D01*
X786922Y122043D01*
X786605Y120653D01*
X786210Y119284D01*
X785739Y117938D01*
X785194Y116621D01*
X784575Y115337D01*
X783886Y114090D01*
X783128Y112883D01*
X782303Y111721D01*
X781414Y110606D01*
X780464Y109543D01*
X779457Y108536D01*
X778394Y107586D01*
X777279Y106697D01*
X776117Y105872D01*
X774910Y105114D01*
X773663Y104425D01*
X772379Y103806D01*
X771062Y103261D01*
X769716Y102790D01*
X768347Y102395D01*
X766957Y102078D01*
X765552Y101840D01*
X764136Y101680D01*
X762713Y101600D01*
X761287Y101600D01*
X759864Y101680D01*
X758448Y101840D01*
X757043Y102078D01*
X755653Y102395D01*
X754284Y102790D01*
X752938Y103261D01*
X751621Y103806D01*
X750337Y104425D01*
X749090Y105114D01*
X747883Y105872D01*
X746721Y106697D01*
X745606Y107586D01*
X744543Y108536D01*
X743536Y109543D01*
X742586Y110606D01*
X741697Y111721D01*
X740872Y112883D01*
X740114Y114090D01*
X739425Y115337D01*
X738806Y116621D01*
X738261Y117938D01*
X737790Y119284D01*
X737395Y120653D01*
X737078Y122043D01*
X736840Y123448D01*
X736680Y124864D01*
X736600Y126287D01*
X736600Y127713D01*
X736680Y129136D01*
X736840Y130552D01*
X737078Y131957D01*
X737395Y133347D01*
X737790Y134716D01*
X738261Y136062D01*
X738806Y137379D01*
X739425Y138663D01*
X740114Y139910D01*
X740872Y141117D01*
X741697Y142279D01*
X742586Y143394D01*
X743536Y144457D01*
X744543Y145464D01*
X745606Y146414D01*
X746721Y147303D01*
X747883Y148128D01*
X749090Y148886D01*
X750337Y149575D01*
X751621Y150194D01*
X752938Y150739D01*
X754284Y151210D01*
X755653Y151605D01*
X757043Y151922D01*
X758448Y152161D01*
X759864Y152320D01*
X761287Y152400D01*
X762713Y152400D01*
X764136Y152320D01*
X765552Y152161D01*
X766957Y151922D01*
X768347Y151605D01*
X769716Y151210D01*
X771062Y150739D01*
X772379Y150194D01*
X773663Y149575D01*
X774910Y148886D01*
X776117Y148128D01*
X777279Y147303D01*
X778394Y146414D01*
X779457Y145464D01*
X780464Y144457D01*
X781414Y143394D01*
X782303Y142279D01*
X783128Y141117D01*
X783886Y139910D01*
X784575Y138663D01*
X785194Y137379D01*
X785739Y136062D01*
X786210Y134716D01*
X786605Y133347D01*
X786922Y131957D01*
X787161Y130552D01*
X787320Y129136D01*
X787400Y127713D01*
X787400Y126287D01*
X1460500Y126287D02*
X1460420Y124864D01*
X1460261Y123448D01*
X1460022Y122043D01*
X1459705Y120653D01*
X1459310Y119284D01*
X1458839Y117938D01*
X1458294Y116621D01*
X1457675Y115337D01*
X1456986Y114090D01*
X1456228Y112883D01*
X1455403Y111721D01*
X1454514Y110606D01*
X1453564Y109543D01*
X1452557Y108536D01*
X1451494Y107586D01*
X1450379Y106697D01*
X1449217Y105872D01*
X1448010Y105114D01*
X1446763Y104425D01*
X1445479Y103806D01*
X1444162Y103261D01*
X1442816Y102790D01*
X1441447Y102395D01*
X1440057Y102078D01*
X1438652Y101840D01*
X1437236Y101680D01*
X1435813Y101600D01*
X1434387Y101600D01*
X1432964Y101680D01*
X1431548Y101840D01*
X1430143Y102078D01*
X1428753Y102395D01*
X1427384Y102790D01*
X1426038Y103261D01*
X1424721Y103806D01*
X1423437Y104425D01*
X1422190Y105114D01*
X1420983Y105872D01*
X1419821Y106697D01*
X1418706Y107586D01*
X1417643Y108536D01*
X1416636Y109543D01*
X1415686Y110606D01*
X1414797Y111721D01*
X1413972Y112883D01*
X1413214Y114090D01*
X1412525Y115337D01*
X1411906Y116621D01*
X1411361Y117938D01*
X1410890Y119284D01*
X1410495Y120653D01*
X1410178Y122043D01*
X1409940Y123448D01*
X1409780Y124864D01*
X1409700Y126287D01*
X1409700Y127713D01*
X1409780Y129136D01*
X1409940Y130552D01*
X1410178Y131957D01*
X1410495Y133347D01*
X1410890Y134716D01*
X1411361Y136062D01*
X1411906Y137379D01*
X1412525Y138663D01*
X1413214Y139910D01*
X1413972Y141117D01*
X1414797Y142279D01*
X1415686Y143394D01*
X1416636Y144457D01*
X1417643Y145464D01*
X1418706Y146414D01*
X1419821Y147303D01*
X1420983Y148128D01*
X1422190Y148886D01*
X1423437Y149575D01*
X1424721Y150194D01*
X1426038Y150739D01*
X1427384Y151210D01*
X1428753Y151605D01*
X1430143Y151922D01*
X1431548Y152161D01*
X1432964Y152320D01*
X1434387Y152400D01*
X1435813Y152400D01*
X1437236Y152320D01*
X1438652Y152161D01*
X1440057Y151922D01*
X1441447Y151605D01*
X1442816Y151210D01*
X1444162Y150739D01*
X1445479Y150194D01*
X1446763Y149575D01*
X1448010Y148886D01*
X1449217Y148128D01*
X1450379Y147303D01*
X1451494Y146414D01*
X1452557Y145464D01*
X1453564Y144457D01*
X1454514Y143394D01*
X1455403Y142279D01*
X1456228Y141117D01*
X1456986Y139910D01*
X1457675Y138663D01*
X1458294Y137379D01*
X1458839Y136062D01*
X1459310Y134716D01*
X1459705Y133347D01*
X1460022Y131957D01*
X1460261Y130552D01*
X1460420Y129136D01*
X1460500Y127713D01*
X1460500Y126287D01*
M02*
