G04 EAGLE Gerber RS-274X export*
G75*
%MOMM*%
%FSLAX34Y34*%
%LPD*%
%INSoldermask Bottom*%
%IPPOS*%
%AMOC8*
5,1,8,0,0,1.08239X$1,22.5*%
G01*
%ADD10C,5.283200*%
%ADD11C,1.524000*%
%ADD12P,2.144431X8X202.500000*%
%ADD13C,1.727200*%
%ADD14C,2.184400*%
%ADD15P,2.034460X8X112.500000*%
%ADD16P,2.034460X8X292.500000*%
%ADD17C,1.993900*%
%ADD18C,0.959600*%


D10*
X762000Y1231900D03*
X1435100Y1231900D03*
X762000Y127000D03*
X1435100Y127000D03*
D11*
X832104Y812800D02*
X818896Y812800D01*
X818896Y787400D02*
X832104Y787400D01*
X832104Y660400D02*
X818896Y660400D01*
X818896Y635000D02*
X832104Y635000D01*
X832104Y762000D02*
X818896Y762000D01*
X818896Y736600D02*
X832104Y736600D01*
X832104Y685800D02*
X818896Y685800D01*
X818896Y711200D02*
X832104Y711200D01*
X832104Y609600D02*
X818896Y609600D01*
X895096Y609600D02*
X908304Y609600D01*
X908304Y635000D02*
X895096Y635000D01*
X895096Y660400D02*
X908304Y660400D01*
X908304Y685800D02*
X895096Y685800D01*
X895096Y711200D02*
X908304Y711200D01*
X908304Y736600D02*
X895096Y736600D01*
X895096Y762000D02*
X908304Y762000D01*
X908304Y787400D02*
X895096Y787400D01*
X895096Y812800D02*
X908304Y812800D01*
D12*
X762000Y635000D03*
X762000Y660400D03*
X762000Y685800D03*
X762000Y711200D03*
X762000Y736600D03*
X762000Y762000D03*
X762000Y787400D03*
X762000Y812800D03*
D13*
X850900Y160020D02*
X850900Y144780D01*
X825500Y144780D02*
X825500Y160020D01*
D14*
X1101344Y1168400D02*
X1121156Y1168400D01*
X1121664Y1108710D02*
X1141476Y1108710D01*
X1141476Y1228090D02*
X1121664Y1228090D01*
X1243584Y1228090D02*
X1263396Y1228090D01*
X1263396Y1108710D02*
X1243584Y1108710D01*
X1121156Y990600D02*
X1101344Y990600D01*
X1121664Y930910D02*
X1141476Y930910D01*
X1141476Y1050290D02*
X1121664Y1050290D01*
X1243584Y1050290D02*
X1263396Y1050290D01*
X1263396Y930910D02*
X1243584Y930910D01*
X1121156Y812800D02*
X1101344Y812800D01*
X1121664Y753110D02*
X1141476Y753110D01*
X1141476Y872490D02*
X1121664Y872490D01*
X1243584Y872490D02*
X1263396Y872490D01*
X1263396Y753110D02*
X1243584Y753110D01*
X1121156Y635000D02*
X1101344Y635000D01*
X1121664Y575310D02*
X1141476Y575310D01*
X1141476Y694690D02*
X1121664Y694690D01*
X1243584Y694690D02*
X1263396Y694690D01*
X1263396Y575310D02*
X1243584Y575310D01*
X1121156Y457200D02*
X1101344Y457200D01*
X1121664Y397510D02*
X1141476Y397510D01*
X1141476Y516890D02*
X1121664Y516890D01*
X1243584Y516890D02*
X1263396Y516890D01*
X1263396Y397510D02*
X1243584Y397510D01*
X1121156Y279400D02*
X1101344Y279400D01*
X1121664Y219710D02*
X1141476Y219710D01*
X1141476Y339090D02*
X1121664Y339090D01*
X1243584Y339090D02*
X1263396Y339090D01*
X1263396Y219710D02*
X1243584Y219710D01*
D15*
X1041400Y1155700D03*
X1041400Y1181100D03*
X1041400Y977900D03*
X1041400Y1003300D03*
X1041400Y800100D03*
X1041400Y825500D03*
X1041400Y622300D03*
X1041400Y647700D03*
X1041400Y444500D03*
X1041400Y469900D03*
X1041400Y266700D03*
X1041400Y292100D03*
D16*
X977900Y1219200D03*
X977900Y1117600D03*
X977900Y1041400D03*
X977900Y939800D03*
X977900Y863600D03*
X977900Y762000D03*
X977900Y685800D03*
X977900Y584200D03*
X977900Y508000D03*
X977900Y406400D03*
X977900Y330200D03*
X977900Y228600D03*
D17*
X1419797Y546100D02*
X1437704Y546100D01*
X1437704Y596900D02*
X1419797Y596900D01*
X1419797Y647700D02*
X1437704Y647700D01*
X1437704Y698500D02*
X1419797Y698500D01*
X1419797Y749300D02*
X1437704Y749300D01*
X1437704Y800100D02*
X1419797Y800100D01*
X1419797Y850900D02*
X1437704Y850900D01*
X1437704Y901700D02*
X1419797Y901700D01*
X1155700Y142304D02*
X1155700Y124397D01*
X1206500Y124397D02*
X1206500Y142304D01*
D18*
X1066800Y1079500D03*
X1066800Y901700D03*
X1066800Y723900D03*
X1066800Y546100D03*
X1066800Y368300D03*
M02*
